<svg width="98" height="24" viewBox="0 0 98 24" fill="none" xmlns="http://www.w3.org/2000/svg">
<g id="Component 1">
<g id="Star">
<g id="Layer 2">
<g id="star">
<path id="Vector" d="M35.56 21C35.4001 21.0006 35.2423 20.9629 35.1 20.89L30 18.22L24.9 20.89C24.7344 20.9771 24.5477 21.016 24.3611 21.0022C24.1745 20.9884 23.9955 20.9226 23.8444 20.8122C23.6934 20.7018 23.5763 20.5512 23.5066 20.3776C23.4369 20.2039 23.4173 20.0142 23.45 19.83L24.45 14.2L20.33 10.2C20.2015 10.0717 20.1103 9.91087 20.0662 9.73469C20.0222 9.55852 20.027 9.37367 20.08 9.2C20.138 9.02227 20.2446 8.86435 20.3878 8.74416C20.5309 8.62396 20.7049 8.5463 20.89 8.52L26.59 7.69L29.1 2.56C29.1819 2.39093 29.3097 2.24834 29.4689 2.14857C29.6281 2.0488 29.8121 1.99589 30 1.99589C30.1879 1.99589 30.3719 2.0488 30.5311 2.14857C30.6903 2.24834 30.8181 2.39093 30.9 2.56L33.44 7.68L39.14 8.51C39.3251 8.5363 39.4991 8.61396 39.6423 8.73416C39.7854 8.85435 39.892 9.01227 39.95 9.19C40.0031 9.36367 40.0078 9.54852 39.9638 9.72469C39.9197 9.90087 39.8286 10.0617 39.7 10.19L35.58 14.19L36.58 19.82C36.6157 20.0075 36.597 20.2013 36.5261 20.3784C36.4553 20.5556 36.3352 20.7089 36.18 20.82C35.9989 20.9469 35.7809 21.0102 35.56 21V21Z" fill="black"/>
</g>
</g>
</g>
<g id="Layer 2_2">
<g id="star_2">
<path id="Vector_2" d="M17.56 21C17.4001 21.0006 17.2423 20.9629 17.1 20.89L12 18.22L6.90001 20.89C6.7344 20.9771 6.54768 21.016 6.36108 21.0022C6.17448 20.9884 5.99548 20.9226 5.84444 20.8122C5.69339 20.7018 5.57635 20.5512 5.50662 20.3776C5.4369 20.2039 5.41728 20.0142 5.45001 19.83L6.45001 14.2L2.33001 10.2C2.20146 10.0717 2.11028 9.91087 2.06623 9.73469C2.02219 9.55852 2.02695 9.37367 2.08001 9.2C2.13797 9.02227 2.24458 8.86435 2.38776 8.74416C2.53093 8.62396 2.70493 8.5463 2.89001 8.52L8.59001 7.69L11.1 2.56C11.1819 2.39093 11.3097 2.24834 11.4689 2.14857C11.6281 2.0488 11.8121 1.99589 12 1.99589C12.1879 1.99589 12.3719 2.0488 12.5311 2.14857C12.6903 2.24834 12.8181 2.39093 12.9 2.56L15.44 7.68L21.14 8.51C21.3251 8.5363 21.4991 8.61396 21.6423 8.73416C21.7854 8.85435 21.892 9.01227 21.95 9.19C22.0031 9.36367 22.0078 9.54852 21.9638 9.72469C21.9197 9.90087 21.8286 10.0617 21.7 10.19L17.58 14.19L18.58 19.82C18.6157 20.0075 18.597 20.2013 18.5261 20.3784C18.4553 20.5556 18.3352 20.7089 18.18 20.82C17.9989 20.9469 17.7809 21.0102 17.56 21V21Z" fill="black"/>
</g>
</g>
<g id="Star_2">
<g id="Layer 2_3">
<g id="star_3">
<path id="Vector_3" d="M54.56 21C54.4001 21.0006 54.2423 20.9629 54.1 20.89L49 18.22L43.9 20.89C43.7344 20.9771 43.5477 21.016 43.3611 21.0022C43.1745 20.9884 42.9955 20.9226 42.8444 20.8122C42.6934 20.7018 42.5763 20.5512 42.5066 20.3776C42.4369 20.2039 42.4173 20.0142 42.45 19.83L43.45 14.2L39.33 10.2C39.2015 10.0717 39.1103 9.91087 39.0662 9.73469C39.0222 9.55852 39.027 9.37367 39.08 9.2C39.138 9.02227 39.2446 8.86435 39.3878 8.74416C39.5309 8.62396 39.7049 8.5463 39.89 8.52L45.59 7.69L48.1 2.56C48.1819 2.39093 48.3097 2.24834 48.4689 2.14857C48.6281 2.0488 48.8121 1.99589 49 1.99589C49.1879 1.99589 49.3719 2.0488 49.5311 2.14857C49.6903 2.24834 49.8181 2.39093 49.9 2.56L52.44 7.68L58.14 8.51C58.3251 8.5363 58.4991 8.61396 58.6423 8.73416C58.7854 8.85435 58.892 9.01227 58.95 9.19C59.0031 9.36367 59.0078 9.54852 58.9638 9.72469C58.9197 9.90087 58.8286 10.0617 58.7 10.19L54.58 14.19L55.58 19.82C55.6157 20.0075 55.597 20.2013 55.5261 20.3784C55.4553 20.5556 55.3352 20.7089 55.18 20.82C54.9989 20.9469 54.7809 21.0102 54.56 21V21Z" fill="black"/>
</g>
</g>
</g>
<g id="Star_3">
<g id="Layer 2_4">
<g id="star_4">
<path id="Vector_4" d="M72.56 21C72.4001 21.0006 72.2423 20.9629 72.1 20.89L67 18.22L61.9 20.89C61.7344 20.9771 61.5477 21.016 61.3611 21.0022C61.1745 20.9884 60.9955 20.9226 60.8444 20.8122C60.6934 20.7018 60.5763 20.5512 60.5066 20.3776C60.4369 20.2039 60.4173 20.0142 60.45 19.83L61.45 14.2L57.33 10.2C57.2015 10.0717 57.1103 9.91087 57.0662 9.73469C57.0222 9.55852 57.027 9.37367 57.08 9.2C57.138 9.02227 57.2446 8.86435 57.3878 8.74416C57.5309 8.62396 57.7049 8.5463 57.89 8.52L63.59 7.69L66.1 2.56C66.1819 2.39093 66.3097 2.24834 66.4689 2.14857C66.6281 2.0488 66.8121 1.99589 67 1.99589C67.1879 1.99589 67.3719 2.0488 67.5311 2.14857C67.6903 2.24834 67.8181 2.39093 67.9 2.56L70.44 7.68L76.14 8.51C76.3251 8.5363 76.4991 8.61396 76.6423 8.73416C76.7854 8.85435 76.892 9.01227 76.95 9.19C77.0031 9.36367 77.0078 9.54852 76.9638 9.72469C76.9197 9.90087 76.8286 10.0617 76.7 10.19L72.58 14.19L73.58 19.82C73.6157 20.0075 73.597 20.2013 73.5261 20.3784C73.4553 20.5556 73.3352 20.7089 73.18 20.82C72.9989 20.9469 72.7809 21.0102 72.56 21V21Z" fill="black"/>
</g>
</g>
</g>
<g id="Layer 2_5">
<g id="star_5">
<path id="Vector_5" d="M91.56 21C91.4001 21.0006 91.2423 20.9629 91.1 20.89L86 18.22L80.9 20.89C80.7344 20.9771 80.5477 21.016 80.3611 21.0022C80.1745 20.9884 79.9955 20.9226 79.8444 20.8122C79.6934 20.7018 79.5763 20.5512 79.5066 20.3776C79.4369 20.2039 79.4173 20.0142 79.45 19.83L80.45 14.2L76.33 10.2C76.2015 10.0717 76.1103 9.91087 76.0662 9.73469C76.0222 9.55852 76.027 9.37367 76.08 9.2C76.138 9.02227 76.2446 8.86435 76.3878 8.74416C76.5309 8.62396 76.7049 8.5463 76.89 8.52L82.59 7.69L85.1 2.56C85.1819 2.39093 85.3097 2.24834 85.4689 2.14857C85.6281 2.0488 85.8121 1.99589 86 1.99589C86.1879 1.99589 86.3719 2.0488 86.5311 2.14857C86.6903 2.24834 86.8181 2.39093 86.9 2.56L89.44 7.68L95.14 8.51C95.3251 8.5363 95.4991 8.61396 95.6423 8.73416C95.7854 8.85435 95.892 9.01227 95.95 9.19C96.0031 9.36367 96.0078 9.54852 95.9638 9.72469C95.9197 9.90087 95.8286 10.0617 95.7 10.19L91.58 14.19L92.58 19.82C92.6157 20.0075 92.597 20.2013 92.5261 20.3784C92.4553 20.5556 92.3352 20.7089 92.18 20.82C91.9989 20.9469 91.7809 21.0102 91.56 21V21Z" fill="black"/>
</g>
</g>
</g>
</svg>
