<svg width="90" height="90" viewBox="0 0 90 90" fill="none" xmlns="http://www.w3.org/2000/svg">
<g id="Github">
<path id="Vector" d="M0 45C0 32.5781 4.39453 21.9726 13.1837 13.1836C21.9726 4.39453 32.5781 0 45 0C57.4218 0 68.0273 4.39453 76.8164 13.1836C85.6054 21.9726 90 32.5781 90 45C90 57.4218 85.6055 68.0273 76.8164 76.8163C68.0274 85.6054 57.4219 90 45 90C32.5781 90 21.9726 85.6055 13.1837 76.8163C4.39453 68.0274 0 57.4217 0 45ZM4.92187 45C4.92187 56.0157 8.84765 65.4491 16.6992 73.3008C24.5508 81.1523 33.9843 85.0781 45 85.0781C56.0157 85.0781 65.4492 81.1523 73.3008 73.3008C81.1523 65.4492 85.0781 56.0157 85.0781 45C85.0781 33.9843 81.1524 24.5508 73.3008 16.6992C65.4492 8.84765 56.0156 4.92187 45 4.92187C33.9843 4.92187 24.5508 8.84765 16.6992 16.6992C8.84765 24.5508 4.92187 33.9843 4.92187 45ZM17.5782 54.6679C17.3438 54.4335 17.3438 54.1992 17.5782 53.9648C18.0469 53.496 18.6329 53.3203 19.3359 53.4374C20.039 53.5546 20.4492 53.6718 20.5664 53.789C21.3867 54.1406 22.2949 54.9315 23.2909 56.1621C24.2869 57.3926 25.078 58.2421 25.664 58.7109C28.4765 61.0546 31.3475 61.2304 34.2772 59.2382C34.5116 58.4179 34.8925 57.7148 35.4198 57.1288C35.947 56.5428 36.4452 56.1328 36.9139 55.8983C37.3828 55.6639 38.2031 55.3124 39.375 54.8436C35.5077 54.492 32.373 53.8182 29.9706 52.8221C27.5683 51.826 25.6639 50.5663 24.2577 49.0428C22.3827 46.9335 21.2401 44.1796 20.8299 40.7811C20.4197 37.3827 20.6834 34.2772 21.621 31.4647C22.3241 29.7069 23.3202 28.125 24.6092 26.7186C23.6717 23.7889 23.8475 20.4491 25.1365 16.6991C28.8865 16.9335 32.2849 18.2225 35.3318 20.5663C41.1912 19.0429 47.2849 18.9843 53.613 20.3905C54.4333 19.8046 55.6931 19.0722 57.3922 18.1932C59.0914 17.3143 61.2301 16.8162 63.8083 16.699C64.277 17.9881 64.5993 19.5115 64.7751 21.2693C64.9509 23.0271 64.863 24.6678 64.5115 26.1912C67.2067 29.0037 68.6129 32.7537 68.7301 37.4412C68.7301 41.1912 68.0857 44.2966 66.7966 46.7576C65.5076 49.2185 63.2224 51.2693 59.9412 52.9098C57.7146 53.9646 54.7849 54.609 51.1521 54.8434C52.7928 55.6637 53.9939 56.5134 54.7557 57.3923C55.5175 58.2712 56.0155 59.6481 56.2499 61.5231V67.0603L56.4256 72.4216C56.7772 73.0076 57.1874 73.5056 57.6562 73.9159C58.1249 74.3261 58.5351 74.619 58.8867 74.7948C59.2381 74.9706 59.3554 75.2343 59.2381 75.5859C59.1209 75.9374 58.6522 76.1132 57.832 76.1132C55.8397 76.1132 54.2578 75.4101 53.0859 74.0037C52.7343 73.4178 52.5585 72.7148 52.5585 71.8944V63.4569C52.5585 62.5194 52.3242 61.8455 51.8554 61.4353C51.3867 61.0251 50.9179 60.7615 50.4492 60.6443V71.7185C50.4492 73.7107 50.6835 74.9997 51.1523 75.5857C51.621 76.1716 51.914 76.7576 52.0313 77.3435C52.1485 77.4607 52.0605 77.5485 51.7676 77.6071C51.4747 77.6656 50.9766 77.5779 50.2734 77.3435C48.7499 76.9919 47.6953 76.2009 47.1093 74.9704C46.5234 73.7399 46.2304 72.4215 46.2304 71.0153V60.1171H43.9453V71.0156C43.9453 72.4218 43.6522 73.7695 43.0663 75.0585C42.2461 76.6992 40.7225 77.578 38.4961 77.6952C38.1445 77.578 37.9687 77.4609 37.9687 77.3438C38.0859 77.2265 38.4375 76.6406 39.0234 75.5859C39.1406 75.3516 39.2871 74.8828 39.4629 74.1797C39.6388 73.4766 39.7266 72.6563 39.7266 71.7188V60.6445C39.2579 60.7617 38.8184 61.0253 38.4082 61.4355C37.9981 61.8458 37.7929 62.5196 37.7929 63.4571V71.8945C37.7929 72.7148 37.6171 73.418 37.2656 74.0039C36.2109 75.4102 34.6289 76.1134 32.5196 76.1134C31.6993 76.1134 31.2305 75.9376 31.1133 75.586C30.9961 75.3517 31.0254 75.1465 31.2013 74.9708C31.3771 74.795 31.6408 74.5899 31.9923 74.3555C32.3439 74.1211 32.5783 73.9452 32.6955 73.8281C33.1642 73.4766 33.5157 73.0078 33.7501 72.4219C34.1017 71.9531 34.1896 70.7227 34.0138 68.7305C33.838 66.7383 33.8086 65.4492 33.9258 64.8633C30.8789 65.918 27.7735 65.3906 24.6094 63.2813C23.6719 62.3438 22.7344 60.996 21.7969 59.2383C21.0937 57.9492 19.6875 56.4257 17.5782 54.6679V54.6679Z" fill=""/>
</g>
</svg>
