<svg width="91" height="91" viewBox="0 0 91 91" fill="none" xmlns="http://www.w3.org/2000/svg">
<path id="LinkedIn  x28 alt x29" d="M83.877 0.60791H7.17405C3.50105 0.60791 0.524048 3.49391 0.524048 7.05591V84.1569C0.524048 87.7189 3.50205 90.6079 7.17405 90.6079H83.877C87.55 90.6079 90.523 87.7179 90.523 84.1569V7.05591C90.523 3.49491 87.55 0.60791 83.877 0.60791V0.60791ZM27.809 75.9439H14.211V35.3099H27.809V75.9439V75.9439ZM21.011 29.7589H20.92C16.36 29.7589 13.404 26.6399 13.404 22.7359C13.404 18.7529 16.447 15.7189 21.097 15.7189C25.748 15.7189 28.609 18.7519 28.699 22.7359C28.699 26.6409 25.749 29.7589 21.011 29.7589V29.7589ZM76.827 75.9439H63.233V54.2039C63.233 48.7399 61.263 45.0129 56.347 45.0129C52.586 45.0129 50.354 47.5279 49.374 49.9549C49.01 50.8229 48.9211 52.0349 48.9211 53.2469V75.9429H35.329C35.329 75.9429 35.507 39.1199 35.329 35.3089H48.9221V41.0699C50.7271 38.3019 53.951 34.3529 61.171 34.3529C70.118 34.3529 76.827 40.1569 76.827 52.6439V75.9439V75.9439ZM48.834 41.1989C48.858 41.1609 48.8901 41.1149 48.9221 41.0709V41.1989H48.834Z" fill=""/>
</svg>
