<svg width="2473" height="1855" viewBox="0 0 2473 1855" fill="none" xmlns="http://www.w3.org/2000/svg">
<g id="Open Doodles">
<g id="Illustrations/dancing">
<path id="Vector" d="M0 0H2473V1854.75H0V0Z" fill="white" fill-opacity="0.01"/>
<path id="Accent" fill-rule="evenodd" clip-rule="evenodd" d="M1501.71 1203.27C1497.83 1260.2 1420.58 1289.8 1373.72 1301.95C1383.12 1246.1 1395.25 1188.2 1387.7 1131.56C1385.22 1112.91 1381.96 1094.35 1378.45 1075.86C1377.16 1069.02 1375.82 1062.19 1374.44 1055.37C1374.1 1053.72 1371.39 1046.46 1372.25 1044.8C1373.8 1041.85 1386.91 1042.31 1390.25 1042.44C1398.85 1042.77 1407.3 1044.94 1415.17 1048.38C1431.72 1055.61 1445.66 1068.05 1457.15 1081.78C1484.24 1114.16 1504.64 1160.34 1501.71 1203.27ZM1412.27 816.283C1367.43 842.839 1313.41 857.09 1262.26 864.036C1184.34 874.618 1104.78 862.437 1028.6 845.556C1009.89 841.412 991.226 836.944 972.797 831.701C971.966 885.689 987.154 937.03 1016.82 982.054C1041.34 1019.28 1073.35 1050.39 1101.33 1084.87C1127.37 1116.97 1148.38 1153.18 1149.42 1195.55C1149.85 1213.23 1148.4 1229.4 1133.6 1240.86C1118.72 1252.38 1098.63 1256.65 1080.42 1259.27C1034.84 1265.84 987.099 1262.29 941.802 1255.06C933.007 1253.65 924.228 1252.05 915.548 1250.05C905.693 1247.79 902.239 1245.11 894.009 1252.51C876.246 1268.47 868.098 1292.42 864.074 1315.32C856.535 1358.22 859.092 1408.26 869.96 1450.58C880.431 1491.35 929.848 1513.94 966.458 1523.8C1076.88 1553.51 1198.71 1512.47 1283.45 1439.41C1285.29 1437.82 1287.12 1436.2 1288.91 1434.54C1294.93 1447.07 1301.5 1459.39 1308.69 1471.29C1313.68 1479.57 1318.94 1487.89 1325.24 1495.26C1327.52 1497.92 1330.19 1501.52 1333.3 1503.26C1339.09 1506.5 1344.98 1504.12 1351.53 1502.98C1399.89 1494.58 1448.14 1483.54 1494.13 1466.15C1564.03 1439.71 1626.73 1396.15 1659.87 1327.35C1676.61 1292.59 1685.33 1254.51 1689.56 1216.32C1694.4 1172.47 1695.45 1127.65 1683.11 1084.92C1660.5 1006.6 1602.81 943.104 1539.64 894.134C1500.55 863.83 1457.57 836.449 1412.27 816.283Z" fill="#FF5678"/>
<g id="Ink">
<path id="ink" fill-rule="evenodd" clip-rule="evenodd" d="M2202.47 297.658C2192.25 301.721 2181.24 302.851 2170.37 303.645C2161.84 304.268 2155.14 307.688 2147.11 307.881C2124.73 308.415 2102.26 309.42 2079.99 312.764C2057.62 316.124 2037.02 311.736 2019.36 328.542C2013.07 334.522 2005.19 341.397 2008.97 351.05C2010.7 355.47 2013.14 358.641 2014.58 363.386C2016.21 368.75 2018.23 373.817 2020.59 378.924C2025.1 388.72 2047.71 425.201 2029.36 429.664C2009.47 434.502 1982.5 428.848 1963.34 423.313C1952.16 420.084 1941.15 416.3 1930.14 412.571C1921.41 409.62 1909.95 407.946 1901.92 403.324C1896.58 400.254 1895.48 395.018 1891.96 390.043C1885.55 380.994 1879.56 373.288 1871.27 365.758C1854.09 350.14 1832.61 339.535 1811.43 330.216C1810.06 329.609 1807.57 328.201 1806.09 328.061C1804.5 327.914 1802.74 329.556 1801.71 329.356C1798.89 328.808 1797.9 327.03 1794.81 325.274C1790.65 322.917 1773.72 315.071 1770.76 321.239C1773.53 313.136 1775.56 315.474 1783.05 316.65C1786.36 317.172 1788.57 315.658 1791.54 315.81C1794.27 315.948 1795.39 317.505 1797.68 317.925C1801.86 318.693 1805.76 318.114 1810.13 318.082C1811.3 315.491 1812.97 315.51 1815.13 318.138C1816.33 318.529 1817.54 318.918 1818.74 319.312C1823.09 320.505 1827.74 320.275 1832.2 320.625C1838.89 321.157 1856.32 329.315 1859.68 321.058C1863.26 312.24 1852.39 310.043 1850.57 303.889C1848.8 297.852 1857.09 294.309 1860.41 290.664C1864.2 286.518 1866.51 282.878 1870.96 279.227C1873.56 277.082 1876.97 275.085 1878.9 272.228C1880.68 269.6 1880.6 265.352 1882.9 263.164C1885.65 260.554 1886.07 262.36 1888.57 261.1C1893.46 258.622 1891.3 258.747 1894.2 255.361C1896.67 252.468 1898.5 252.555 1901.74 250.338C1906.49 247.09 1908.15 240.744 1912.76 237.254C1916.13 234.699 1921.5 234.703 1924.46 232.049C1926.21 230.486 1925.67 227.952 1927.17 226.477C1930.07 223.641 1932.05 224.793 1935.66 223.858C1941.75 222.281 1943.72 218.916 1948.2 215.018C1952.3 211.46 1954.89 211.475 1960.02 210C1967.02 207.985 1971.55 202.708 1977.87 199.608C1983.82 196.691 1989.96 194.646 1995.98 191.539C2000.33 189.294 2004.51 187.902 2008.48 185.611C2009.82 184.838 2009.94 182.007 2011.67 181.624C2013.65 181.182 2015.24 184.481 2017.35 184.654C2021.78 185.018 2026.81 180.109 2029.72 177.267C2030.99 176.032 2032.69 172.692 2034.32 172.003C2037.72 170.558 2039.75 173.419 2042.78 172.29C2047.03 170.704 2045.34 166.062 2047.95 163.503C2050.22 161.269 2055.06 161.42 2059.11 162.127C2075.41 164.97 2050.04 176.487 2045.27 178.817C2037.24 182.741 1978.85 211.285 1992.51 225.52C1999.74 233.05 2017.39 227.387 2025.24 225.404C2039.02 221.924 2053.37 215.226 2067.5 213.689C2069.25 213.499 2074.46 214.749 2075.88 214.204C2079.09 212.975 2078.29 210.519 2080.9 209.226C2084.83 207.286 2092.85 207.381 2096.84 207.817C2099.96 208.158 2103.37 210.019 2106.54 209.767C2110.04 209.489 2113.41 207.457 2116.88 206.803C2122.8 205.686 2128.94 206.233 2134.93 206.406C2143.54 206.658 2160.75 207.959 2148.24 219.397C2138.11 228.655 2120.6 232.662 2107.83 236.702C2088.94 242.673 2070.38 248.107 2051.73 254.91C2039.02 259.542 2011.91 267.681 2027.04 285.049C2028.54 283.639 2030.03 282.231 2031.52 280.821C2033.28 282.605 2035.11 286.078 2037.93 286.18C2040.28 286.262 2039.42 283.736 2041.64 282.946C2048.63 280.466 2058.21 280.654 2065.58 280.188C2084.04 279.019 2102.43 276.573 2120.91 275.814C2138.32 275.102 2155.91 276.029 2172.98 279.681C2177.37 280.62 2218.29 291.37 2202.47 297.658ZM2051.52 476.253C2052.45 484.005 2049.01 490.277 2048.05 497.766C2046.9 506.82 2047.75 514.795 2045.18 523.795C2040.19 541.292 2036.64 559.193 2031.29 576.588C2021.83 607.303 2006.57 634.428 1990.87 662.296C1982.87 676.503 1970.81 688.235 1959.79 700.12C1948.49 712.299 1939.47 724.287 1925.97 734.288C1898.99 754.275 1869.88 772.052 1837.94 782.849C1804.51 794.154 1769.36 797.579 1734.24 796.142C1718.66 795.504 1702.14 797.081 1686.81 794.562C1670.5 791.879 1652.83 788.588 1636.8 784.627C1607.38 777.365 1579.04 765.036 1550.31 754.023C1518.22 741.724 1489.33 726.024 1460.07 708.288C1452.33 703.595 1444.15 701.405 1436.89 695.724C1430.77 690.94 1424.75 686.364 1418.31 681.993C1410.93 676.979 1403.86 671.497 1396.31 666.732C1391.8 663.882 1385.45 661.095 1383.09 655.939C1379.83 648.846 1383.76 639.939 1385.79 633.059C1388.43 624.104 1391.24 615.26 1394.41 606.482C1399.79 591.617 1413.48 568.691 1405.95 552.976C1390.08 562.808 1383.08 582.136 1376.3 598.565C1368.2 618.194 1362.54 637.776 1361.32 659.064C1358.87 701.888 1366.03 746.962 1381.57 786.892C1383.88 792.821 1387.93 799.252 1384.95 805.597C1381.82 812.253 1373.34 817.875 1366.81 820.753C1346.18 829.856 1325.46 832.507 1303.91 837.543C1298.04 838.912 1291.61 843.03 1286.11 843.549C1282.39 843.899 1279.32 842.68 1275.06 842.709C1270.79 842.738 1267.44 845.131 1263.62 845.387C1260.28 845.614 1257.31 843.66 1254.13 843.844C1247 844.259 1245.69 856.472 1242.16 845.72C1241.52 846.162 1237.98 850.171 1237.53 850.173C1236.53 850.176 1234.75 847.186 1233.79 846.655C1231.92 845.616 1229.45 845.556 1227.35 845.285C1222.73 844.684 1217.75 844.624 1213.2 845.684C1204.76 847.65 1196.28 846.821 1189.06 846.679C1187.42 846.647 1186.26 847.969 1184.22 847.891C1183.29 847.853 1181.95 846.208 1180.96 845.954C1175.26 844.484 1169.34 845.582 1163.53 845.261C1149.88 844.508 1136.69 844.143 1123.37 841.127C1096.05 834.942 1068.19 833.703 1040.77 828.047C1026.79 825.163 1013.14 823.591 999.384 819.792C994.549 818.457 989.594 817.826 985.31 816.005C981.219 814.264 982.827 811.946 976.478 816.602C973.626 809.61 973.288 810.323 966.402 808.012C963.738 807.116 957.619 804.894 955.636 803.133C955.438 802.957 951.2 792.314 950.835 791.005C949.069 784.649 950.54 777.382 951.277 770.984C952.941 756.562 955.346 742.253 955.489 727.714C955.551 721.302 956.708 721.116 958.703 716.284C959.319 714.786 961.133 714.905 961.282 712.625C961.488 709.584 958.377 707.469 958.713 703.919C959.16 699.142 963.956 694.302 965.639 689.851C967.663 684.492 967.636 678.824 968.844 673.277C970.459 665.896 973.58 658.97 975.152 651.558C976.49 645.282 976.618 640.29 979.96 634.904C983.305 629.528 982.32 625.14 984.984 619.786C987.428 614.876 990.519 613.113 992.192 607.184C996.245 592.841 1002.4 578.641 1011.13 566.481C1018.8 596.971 1026.96 628.473 1048.33 652.573C1057.13 662.496 1068.49 672.509 1081.75 675.532C1096.76 678.95 1108.75 670.101 1118.52 659.62C1141.8 634.641 1151.44 606.759 1152.85 572.891C1153.2 564.472 1153.15 556.041 1153.03 547.617C1152.98 543.869 1151.06 534.248 1153.63 531.096C1156.44 527.64 1164.48 529.799 1168.66 527.522C1173.8 524.716 1179.45 517.212 1177.16 511.025C1190.87 517.231 1203.97 525.401 1219.22 527.131C1225.25 527.816 1231.68 526.773 1237.08 526.486C1236.92 526.493 1241.26 527.379 1241.52 527.437C1242.59 526.203 1243.75 525.904 1244.99 526.537C1246.1 526.655 1246.91 527.249 1247.41 528.324C1269.14 530.495 1291.02 519.757 1309.62 508.385C1320.48 501.739 1332.42 491.902 1335.47 478.965C1336.56 474.35 1335.62 470 1340.39 467.646C1344.26 465.728 1351.75 468.493 1355.84 468.793C1370.23 469.848 1384.41 468.481 1398.46 472.771C1407.04 475.388 1422.01 493.731 1427.99 480.827C1430.58 483.261 1429.17 487.596 1431.93 489.966C1434.34 492.03 1442.43 493.484 1445.76 495.252C1450.92 497.986 1453.94 501.625 1458.45 504.912C1464 508.953 1469.8 509.264 1475.17 514.005C1493.76 530.422 1515.54 542.314 1536.3 555.93C1560.93 572.082 1582.73 591.122 1609.16 604.296C1636.19 617.767 1662.35 629.021 1691.89 636.03C1705.29 639.21 1719.03 641.864 1732.78 642.845C1739.27 643.304 1745.46 643.072 1751.72 645.018C1755.52 646.202 1756.75 646.793 1760.48 646.902C1762.66 646.965 1765.81 645.709 1768.49 645.757C1773.99 645.856 1776.8 645.629 1781.77 647.45C1787.39 649.51 1792.06 650.749 1798.46 650.926C1805.82 651.133 1810.16 648.305 1816.85 646.562C1822.24 645.156 1827.09 645.827 1831.91 642.908C1853.35 629.939 1870.58 610.133 1881.83 587.649C1894.73 561.844 1904.68 530.386 1906.7 501.468C1907.86 484.916 1904.21 468.774 1897.89 453.576C1896.1 449.289 1885.4 431.029 1888.7 427.713C1892.44 423.943 1904.68 432.582 1908.13 434.458C1919.08 440.409 1938.85 442.314 1946.52 452.325C1948.48 448.574 1959.35 454.134 1962.84 455.699C1965.72 456.993 1966.54 459.333 1970.16 459.613C1973.58 459.877 1977.11 457.15 1980.25 456.281C1977.96 462.688 1985.68 462.987 1990.97 463.328C1994.78 463.572 1998.87 462.973 2002.27 462.731C2008.76 462.27 2008.87 460.811 2014.8 457.483C2014.57 459.92 2014.83 462.301 2015.59 464.625C2019.4 459.106 2026.67 462.939 2031.83 460.514C2028.1 454.865 2044 453.317 2047.7 454.506C2057.02 457.498 2050.7 469.385 2051.52 476.253ZM1321.91 864.509C1328.06 862.676 1334.25 861 1340.41 859.249C1335.74 863.536 1330.89 871.271 1324.22 872.479C1316.17 873.93 1313.01 867.163 1321.91 864.509ZM1018.38 867.581C1028.73 868.82 1040 867.871 1049.07 873.983C1044.65 879.069 1041.78 884.395 1034.4 881.477C1028.21 879.028 1023.11 872.042 1018.38 867.581ZM1364.19 1146.1C1357.39 1140.01 1358.29 1137.28 1361.48 1129.39C1362.85 1126 1365.03 1115.45 1370.18 1118.54C1372.01 1119.63 1374.23 1131.13 1374.56 1133.46C1375.29 1138.67 1372.07 1153.17 1364.19 1146.1ZM1402.52 1110.71C1400.12 1101.88 1400.2 1092.27 1397.84 1083.23C1395.35 1073.69 1392.29 1064.11 1391.41 1054.24C1427.32 1060.59 1447.72 1096.23 1463.27 1125.97C1471.54 1141.78 1479.64 1159.26 1482.76 1176.93C1485.8 1194.14 1480.52 1207.22 1474.39 1222.56C1471.27 1230.39 1466.1 1233.11 1460.07 1238.28C1454.73 1242.87 1452.72 1250.61 1447.15 1254.73C1443.04 1257.77 1437.69 1259.35 1433.39 1262.43C1429.14 1265.46 1424.89 1268.47 1420.51 1271.31C1415.49 1274.55 1400.46 1286.36 1393.7 1283.84C1388.63 1281.96 1390.88 1275.75 1392.16 1271.87C1394.85 1263.67 1396.74 1255.78 1398.4 1247.23C1402.83 1224.43 1405.23 1201.78 1406.38 1178.59C1407.5 1155.94 1408.55 1132.81 1402.52 1110.71ZM1372.49 1213.54C1373.02 1214.66 1375.27 1224.23 1370.26 1222.26C1366.78 1220.89 1371.98 1215.3 1372.49 1213.54ZM1393.64 833.527C1397.88 831.776 1399.58 836.956 1403.31 837.11C1408.25 837.316 1409.29 831.814 1414.48 831.653C1427.17 831.254 1445.56 843.518 1455.88 849.917C1450.83 856.305 1448.74 862.84 1451.26 870.704C1453.47 877.632 1461.92 885.38 1461.62 892.722C1461.3 900.083 1452.15 904.823 1449.29 911.373C1446.67 917.389 1445.67 929.421 1453.77 932.072C1467.69 936.634 1470.88 910.552 1481.43 910.349C1485.94 910.264 1491.8 918.746 1495.05 921.388C1502.31 927.303 1510.51 931.623 1518.96 935.55C1524.66 938.199 1532.6 943.423 1536.83 936.299C1540.22 930.594 1537.45 921.552 1534.16 916.643C1530.38 911.011 1496.51 885.233 1498.65 882.962C1499.79 881.75 1508.22 885.09 1509.42 886.104C1512.12 888.389 1513.11 892.111 1515.82 894.545C1519.95 898.262 1525.29 899.732 1530.39 901.452C1541.05 905.033 1547.8 917.635 1558.13 923.504C1564.09 926.887 1567.73 933.386 1572.77 938.419C1579.37 945.007 1586.1 951.912 1585.11 961.613C1584.42 968.336 1583.42 983.996 1579.62 989.669C1575.49 995.824 1568.62 993.465 1562.35 994.919C1555.3 996.554 1549.65 1002.06 1551.06 1009.92C1552.52 1018.1 1559.06 1018.68 1565.88 1018.89C1585.15 1019.47 1578.05 1031.7 1584.77 1045.13C1588.42 1052.43 1594.51 1055.29 1598.7 1046.76C1602.07 1039.88 1596.04 1029.05 1599.71 1023.19C1604.16 1016.04 1628.03 1017.98 1633 1023.53C1636.78 1027.75 1638.78 1033.54 1642.54 1037.94C1648.25 1044.63 1650.59 1054.01 1654.02 1062.2C1657.66 1070.91 1660.83 1079.74 1663.62 1088.76C1665.58 1095.1 1669.8 1105.13 1659.68 1099.72C1652.61 1095.94 1647.33 1087.42 1638.38 1087.15C1629.52 1086.88 1624.47 1096.08 1627.06 1104.08C1629.56 1111.83 1640.99 1115.24 1642.31 1123.09C1643.76 1131.68 1629.05 1140.44 1624.58 1146.75C1614.3 1161.29 1622.9 1177.66 1639.76 1165.32C1645.73 1160.94 1651.99 1152.12 1658.73 1149.36C1669.39 1144.98 1669.33 1161.19 1674.44 1167.15C1677.19 1170.36 1678.18 1167.1 1676.55 1171.9C1675.95 1173.66 1672.91 1174.22 1672.56 1176.41C1672.32 1178.02 1673.76 1178.88 1673.81 1180.12C1673.98 1184.35 1673.99 1184.97 1673.04 1189.57C1671.99 1194.66 1672.37 1200.98 1672.05 1206.16C1671.33 1217.99 1671.17 1229.28 1669.93 1241.1C1669.24 1247.68 1667.79 1261.09 1675.56 1264.29C1672.8 1268.62 1669.12 1280.68 1663.68 1279.77C1664.12 1282.62 1663.88 1286.27 1666.65 1288.13C1667.31 1286.39 1667.97 1284.65 1668.63 1282.91C1670.15 1286.89 1668.81 1287.35 1668.72 1290.05C1668.84 1286.7 1665.67 1294.73 1667.38 1293.74C1665.92 1294.96 1664 1295.65 1661.81 1297.23C1658.75 1299.43 1657.13 1302.48 1654.76 1305.46C1650.45 1310.84 1650.7 1316.28 1646.94 1321.9C1641.6 1329.87 1634.74 1337.73 1629.12 1345.7C1624.53 1352.18 1615.8 1355.91 1612.13 1362.88C1609.8 1367.31 1608.87 1372.47 1604.89 1375.58C1599.18 1380.05 1591.55 1384.25 1585.36 1388.86C1581.46 1391.76 1578.5 1395.78 1574.61 1398.59C1572.64 1400.01 1566.71 1401.46 1566.7 1404.36C1559.24 1402.27 1553.96 1394.65 1548.09 1390.01C1544.17 1386.91 1534.83 1382.88 1535.4 1376.67C1535.86 1371.59 1543.09 1365.28 1544.75 1359.95C1546.16 1355.44 1548.13 1347.01 1544.22 1343.16C1536.03 1335.07 1526.74 1352.43 1522.35 1357.05C1513.28 1366.59 1509.42 1356.97 1501.96 1350.05C1490.05 1338.99 1482.56 1350.47 1486.75 1364.24C1488.88 1371.21 1496.96 1377.42 1497.49 1384.54C1498.07 1392.36 1489.59 1396.3 1486.23 1402.55C1483.07 1408.44 1481.6 1418.8 1487.56 1423.68C1494.12 1429.06 1499.83 1422.69 1504.13 1417.72C1507.46 1413.87 1511.17 1405.38 1516.59 1404.89C1523.37 1404.29 1534.5 1416.62 1539.66 1420.42C1531.82 1422.69 1527.1 1429.26 1520.47 1433.47C1511.91 1438.9 1499.96 1440.18 1490.39 1443.91C1481.37 1447.42 1473.25 1450.28 1464.66 1454.64C1454.46 1459.81 1442 1461.1 1431.2 1464.86C1421.56 1468.22 1412.42 1472.94 1402.58 1475.71C1391.48 1478.84 1379.97 1480.72 1368.78 1483.55C1359.22 1485.96 1348 1488.29 1338.14 1488.3C1328.17 1488.32 1328.37 1482.15 1325.19 1473.92C1321.4 1464.15 1315.12 1455.57 1311.12 1446.04C1307.31 1436.97 1313.06 1433.52 1318.58 1426.59C1323.77 1420.05 1322.4 1419.02 1329.1 1423.61C1337.92 1429.66 1343.74 1425.57 1350.6 1418.62C1356.71 1412.44 1358.95 1407.31 1367.73 1411.61C1376.52 1415.91 1384.9 1422.92 1394.34 1425.73C1401.78 1427.94 1407.32 1426.33 1408.57 1418.19C1409.91 1409.4 1404.9 1403.16 1398.58 1397.93C1393.77 1393.96 1383.26 1389.25 1381.5 1382.8C1379.65 1376.01 1389.41 1366.11 1390.45 1358.51C1391.77 1348.92 1387.64 1341.88 1378.54 1348.51C1371.95 1353.33 1367.55 1363.77 1358.39 1364.41C1360.94 1353.74 1366.46 1344.26 1371.19 1334.48C1375.16 1326.29 1378.56 1317 1389.21 1316.09C1392.66 1315.79 1394.91 1316.15 1398.2 1315.56C1402.55 1314.77 1408.46 1314.15 1413.11 1312.98C1424.05 1310.21 1433.71 1301.76 1443.78 1296.92C1446.09 1303.14 1450.18 1320.84 1459.59 1310.51C1466.54 1302.86 1458.84 1289.7 1465.25 1281.2C1478.47 1263.65 1507.27 1276.53 1524.64 1267.48C1532.2 1263.54 1538.36 1250.98 1527.69 1247.19C1521.46 1244.98 1503.47 1253.15 1499.72 1247.13C1497.05 1242.83 1508.25 1226.05 1509.6 1221.44C1513.81 1207.08 1513.13 1192.18 1513.13 1177.39C1521.58 1180.85 1532.28 1188.95 1541.39 1190.06C1550.75 1191.19 1552.4 1180.2 1549.95 1172.97C1546.56 1163.02 1535.29 1154.86 1527.57 1148.45C1524.16 1145.63 1515.24 1141.08 1513.38 1136.78C1511.45 1132.35 1514.21 1130.2 1516.37 1126.34C1519.76 1120.32 1527.95 1104.74 1519.03 1099.1C1510.83 1093.9 1506.23 1108.46 1501.01 1111.57C1492.15 1116.86 1489.11 1104.75 1485.58 1098.59C1479.19 1087.41 1470.32 1077.43 1462.36 1067.37C1455.12 1058.2 1450.66 1052.01 1449.6 1040.33C1448.8 1031.49 1446.99 1024.65 1457.41 1022.64C1475.89 1019.08 1502.95 1027.85 1517.96 1012.81C1525.83 1004.93 1520.21 996.776 1510.27 997.182C1497.21 997.715 1484.8 998.36 1471.65 997.3C1464.67 996.737 1450.06 998.435 1446.53 991.233C1441.99 981.96 1449.69 967.061 1441.33 958.935C1430.66 948.557 1428.04 972.01 1427.69 978.484C1427.43 983.203 1428.64 990.386 1425.7 994.467C1422.96 998.273 1417.96 998.218 1413.91 999.594C1403.71 1003.06 1398.44 1015.6 1411.97 1018.25C1416.52 1019.14 1422.87 1017.84 1426.65 1021.22C1430.62 1024.75 1429.1 1031.03 1429.47 1035.8C1419.99 1024.8 1400.29 1029.68 1387.45 1025.59C1380.69 1023.45 1379.54 1020.58 1376.7 1014.03C1373.26 1006.11 1365.41 996.083 1365.11 987.319C1364.85 979.878 1371.05 974.278 1373.94 967.863C1376.43 962.359 1378.67 953.402 1378.3 947.227C1377.42 932.331 1350.55 947.536 1345.01 953.235C1334.97 963.579 1322.58 976.958 1328.03 991.61C1332.89 1004.68 1335.46 1012.1 1318.61 1011.07C1312.44 1010.69 1299.49 1011.91 1294.7 1009.31C1291.15 1007.38 1292.49 1003.91 1292.37 998.884C1292.27 994.532 1292.6 987.937 1289.81 984.133C1279.98 970.759 1277.68 1004.04 1272.16 1007.65C1263.53 1013.29 1245.28 1007.38 1246.69 1024.11C1247.92 1038.75 1267.71 1032.77 1273.18 1045.37C1275.82 1051.44 1275.26 1058.5 1278.58 1064.36C1283.31 1072.71 1289.13 1072.26 1292.27 1063.56C1294.47 1057.45 1291.53 1051.17 1293.23 1045.4C1295.68 1037.06 1307.33 1037.83 1314.49 1036.89C1323.2 1035.75 1330.8 1033.55 1339.08 1030.87C1349.31 1027.56 1348.75 1032.99 1350.42 1040.86C1352.35 1049.98 1355.3 1058.78 1357.11 1068.04C1358.8 1076.67 1363.27 1085.96 1364 1094.59C1364.56 1101.2 1362.32 1100.59 1356.85 1104.4C1350.88 1108.57 1344.3 1119.39 1337.37 1121.17C1326.94 1123.85 1316.42 1100 1306.93 1112.21C1302.86 1117.44 1304.44 1128.6 1307.33 1134.01C1311.16 1141.16 1318.2 1142.98 1312.3 1151.17C1307.87 1157.33 1302.3 1162.09 1301.88 1170.37C1301.49 1178.06 1306.72 1185.33 1314.89 1183.07C1321.49 1181.25 1325.4 1174.49 1330.39 1170.38C1339.03 1163.3 1346.11 1169.86 1354.95 1173.87C1361.9 1177.03 1374.68 1179.09 1378.17 1186.52C1382.6 1195.95 1376.92 1199.59 1368.69 1196.91C1371.9 1207.45 1367.68 1213.57 1366.52 1224.46C1365.58 1233.28 1363.56 1241.35 1362.27 1249.87C1360.55 1261.25 1360.37 1260.02 1348.66 1260.41C1338.71 1260.73 1329.03 1260.47 1319.09 1260.03C1310.34 1259.65 1304.38 1260.44 1303.99 1249.87C1303.82 1245.21 1306.76 1229.4 1297.57 1231.3C1289.47 1232.97 1291.8 1247.41 1289.1 1252.84C1285.18 1260.7 1278.56 1258.3 1271.19 1260.24C1263.69 1262.21 1257.63 1267.75 1259.57 1276.3C1261.63 1285.43 1270 1284.8 1277.28 1286.91C1288.48 1290.16 1286.02 1306.64 1292.56 1315.59C1295.23 1319.25 1298.04 1322.94 1302.52 1319.94C1310.73 1314.44 1302.97 1301.01 1305.15 1294.27C1307.43 1287.18 1315.12 1288.63 1322.4 1287.71C1333.14 1286.36 1344.38 1281.18 1355.08 1281.24C1353.03 1287.41 1347.28 1291 1345.21 1297.5C1344.1 1300.99 1345.14 1307.5 1343.6 1310.38C1341.94 1313.47 1336.72 1314.4 1334.56 1318.71C1331.74 1324.35 1330.87 1330.39 1327.56 1335.91C1319.74 1348.97 1313.01 1362.32 1304.71 1375.25C1296.13 1388.6 1286.88 1401.31 1276.09 1412.88C1265.62 1424.11 1262.5 1418.67 1253.5 1409.49C1249.84 1405.76 1242.06 1401.43 1241.05 1395.85C1240.04 1390.35 1244.59 1385.86 1247.08 1381.39C1250.38 1375.45 1256.34 1365.24 1254.89 1358.11C1252.17 1344.74 1240.21 1357.05 1235.68 1362.06C1227.76 1370.81 1223.34 1380 1211.37 1373.09C1203.72 1368.67 1194.06 1356.56 1184.01 1361.04C1174.86 1365.12 1177.42 1376.89 1183.05 1382.87C1186.2 1386.22 1190.69 1388.13 1194.04 1391.26C1201.24 1398.02 1197.16 1399.85 1193.88 1407.41C1191.19 1413.6 1190.8 1425.77 1195.76 1430.93C1205.52 1441.07 1213.06 1420.61 1222.12 1420.19C1226.41 1420 1244.25 1431.71 1245.53 1435.92C1247.76 1443.32 1228.51 1452.16 1223.39 1455.63C1211.49 1463.7 1198.53 1471.94 1185.15 1477.29C1169.35 1483.61 1181.12 1463.7 1172.49 1457.08C1161.26 1448.47 1160.39 1472.05 1159.24 1477.91C1156.18 1493.49 1139.72 1493.9 1126.44 1497.76C1117.99 1500.22 1109.53 1502.84 1100.99 1504.98C1093.74 1506.79 1085.63 1506.75 1078.6 1509C1072.44 1510.97 1068.22 1514.97 1061.33 1515.02C1059.09 1515.04 1057.14 1514.28 1054.98 1514.22C1050.63 1514.12 1046.63 1516.61 1042.47 1516.35C1035.54 1515.92 1038.55 1513.74 1036.14 1508.9C1033.88 1504.37 1028.12 1502.7 1023.64 1501.28C1010.8 1497.22 1000.1 1500.78 998.237 1484.45C997.663 1479.43 998.421 1458.84 988.879 1461.24C977.736 1464.05 987.541 1488.53 980.624 1494.66C977.258 1497.65 972.177 1496.16 968.119 1497.04C961.459 1498.49 958.539 1503.52 951.248 1503.18C945.097 1502.9 939.371 1500.17 934.009 1497.45C926.018 1493.41 916.483 1490.73 909.82 1484.56C900.687 1476.1 896.68 1462.93 892.787 1451.49C887.059 1434.64 884.617 1417.85 883.697 1400.19C883.376 1394.03 880.76 1389.69 879.666 1384.04C878.504 1378.03 881.939 1376.82 882.728 1371.13C883.496 1365.6 883.124 1359.68 884.289 1353.75C885.962 1345.23 886.547 1336.5 888.169 1327.95C890.855 1313.8 894.927 1299.75 898.269 1285.74C899.308 1281.38 901.189 1267.42 906.562 1266.08C910.528 1265.09 919.683 1271 923.357 1272.73C930.623 1276.16 936.869 1280.89 944.643 1283.26C948.654 1284.49 953.718 1284.37 956.351 1288.09C960.512 1293.99 957.148 1305.53 958.872 1312.5C960.983 1321.02 967.972 1324.65 973.604 1316.09C976.606 1311.52 975.806 1306.07 976.21 1301.03C976.785 1293.75 976.913 1291.99 984.788 1292.48C992.765 1292.98 1000.55 1295.99 1008.73 1296.36C1016.11 1296.69 1023.52 1296.48 1030.89 1296.08C1048.78 1295.1 1065.15 1292.19 1081.93 1285.82C1093.29 1281.5 1106.47 1272.07 1119 1272.4C1136.68 1272.87 1131.9 1289.24 1134.32 1301.49C1135.79 1308.94 1148.26 1331.82 1153.05 1313.25C1155.41 1304.07 1147.52 1290.67 1152.2 1282.38C1157.72 1272.58 1178.01 1280.71 1187.25 1278.44C1194.72 1276.6 1207.21 1266.01 1201.93 1256.87C1199.43 1252.54 1194.58 1253.36 1190.25 1253.03C1182.04 1252.42 1173.9 1251.3 1165.76 1250.1C1161.13 1249.42 1154.06 1249.02 1152.21 1243.71C1150.64 1239.2 1158 1227.5 1159.6 1223.18C1164.88 1208.89 1166.79 1197.27 1166.81 1181.69C1166.82 1174.67 1167.28 1167.26 1166.15 1160.31C1165.73 1157.77 1161.91 1149.46 1163.7 1147.03C1166.11 1143.75 1171.03 1147.91 1173 1150.36C1176.93 1155.24 1175.56 1154.85 1173.33 1159.91C1170.05 1167.36 1163.67 1182.98 1174.49 1188.71C1185.81 1194.7 1189.9 1174.44 1200.63 1176.66C1205.63 1177.7 1210.57 1184.28 1214.6 1187.35C1219.32 1190.95 1224.41 1194.76 1229.96 1196.97C1239.06 1200.59 1249.28 1197.88 1245.6 1186.44C1242.7 1177.41 1233.53 1169.87 1226.98 1163.47C1216.53 1153.28 1217.01 1149 1224.22 1137C1227.24 1131.97 1238.84 1110.64 1225.4 1108.91C1218.28 1107.99 1210.59 1119.53 1206.83 1123.94C1200.38 1131.52 1196.68 1134.77 1187.09 1128.69C1177.71 1122.74 1173.35 1117.77 1162.01 1117.22C1148.95 1116.59 1143.08 1096.98 1136.16 1086.9C1117.36 1059.54 1088.58 1046.01 1064.31 1025.04C1052.48 1014.82 1044.49 1001.46 1035.5 988.879C1031.22 982.887 1025.69 977.912 1022.2 971.384C1020 967.279 1014.06 957.384 1015.6 952.54C1017.53 946.509 1027.93 942.788 1032.26 938.528C1035.89 934.956 1037.83 930.5 1043.54 931.865C1048.62 933.082 1053.21 939.962 1057.36 942.986C1061.44 945.954 1066.04 948.707 1070.57 950.926C1078.75 954.94 1088.63 957.085 1089.11 944.879C1089.53 934.318 1079.89 923.009 1072.94 915.884C1067.87 910.699 1060.2 906.193 1061.21 897.96C1061.7 893.876 1065.17 886.607 1067.19 883.182C1074.17 871.394 1095.47 878.586 1107.05 879.342C1120.99 880.255 1136.37 877.913 1147.46 887.78C1151.07 891 1159.45 897.322 1161.23 901.802C1163.29 907.016 1159.92 909.361 1158.04 914.409C1155.62 920.929 1153.95 933.809 1160.93 938.305C1172.57 945.809 1178.65 923.55 1190.75 928.418C1202.23 933.036 1210.26 946.311 1223.36 948.412C1240.51 951.161 1230.74 929.904 1224.81 923.649C1217.11 915.539 1202.19 907.154 1207.07 895.163C1208.47 891.736 1211.66 884.588 1214.53 882.46C1220.15 878.294 1229.2 880.581 1235.63 880.649C1251.86 880.823 1267.19 879.487 1283.09 876.65C1287.89 875.792 1288.98 875.114 1292.36 878.688C1297.04 883.629 1299.5 890.072 1304.94 894.931C1297.08 903.406 1285.42 913.411 1290.89 926.457C1295.59 937.682 1305.9 932.176 1312.88 926.18C1316.16 923.364 1319.54 917.403 1323.88 916.273C1329.52 914.805 1335.85 919.927 1340.47 922.526C1347.4 926.431 1362.21 938.004 1370.08 931.171C1380.48 922.134 1368.17 908.538 1361 902.957C1356.67 899.58 1350.89 897.173 1347.24 893.007C1342.39 887.462 1345.23 886.648 1348.18 881.651C1353.56 872.508 1351.59 860.732 1360.2 853.591C1364.97 849.63 1371.8 847.14 1377.25 844.237C1382.62 841.375 1388.38 835.703 1393.64 833.527ZM1481.39 869.083C1479.29 867.801 1477.2 866.518 1475.11 865.234C1479.89 862.901 1483.05 863.178 1481.39 869.083ZM1596.93 980.177C1597.78 975.91 1601.07 968.276 1605.6 972.268C1608.52 974.833 1605.33 984.466 1612.27 981.803C1612.63 987.939 1608.05 987.418 1614.8 992.878C1606.29 991.893 1594.55 992.277 1596.93 980.177ZM1266.77 1497.51C1268.91 1491.76 1268.9 1482.85 1275.49 1488.1C1275.83 1481.14 1274.19 1459.07 1286.82 1459.97C1291.97 1460.33 1291.92 1464.88 1293.28 1468.81C1295.65 1475.68 1299.66 1481.94 1303.04 1488.34C1290.5 1488.84 1277.95 1491.71 1266.77 1497.51ZM1270.88 1576.84C1278.04 1582.25 1281.63 1575.86 1288.4 1573.53C1294.64 1571.37 1301.12 1572.66 1308.04 1571.14C1316.61 1569.24 1326.72 1569.53 1335.1 1569.45C1337.16 1569.44 1341.48 1569.76 1343.57 1570C1347.37 1570.44 1347.03 1571.23 1350.96 1572.28C1352.48 1571.93 1354.02 1571.68 1355.57 1571.52C1357.46 1571.44 1358.96 1572.22 1360.06 1573.88C1363.6 1575.06 1364.88 1574.27 1368.27 1575.1C1376.34 1577.07 1382.36 1581.93 1387.63 1588.38C1398.36 1601.49 1398.68 1621.21 1398.44 1637.45C1398.37 1642.07 1398.01 1646.68 1398.53 1651.29C1398.99 1655.52 1401.98 1661.91 1400.76 1666.12C1398.91 1672.48 1393.18 1671.05 1386.5 1671.33C1382.57 1671.5 1378.65 1674.04 1375.52 1674.26C1372.5 1674.48 1371.28 1673.37 1368.22 1672.68C1360.23 1670.89 1350.81 1673.44 1342.93 1675.62C1334.85 1677.85 1327.76 1680.05 1319.57 1681.63C1314.23 1682.65 1309.43 1683.24 1304.05 1683.91C1299.64 1684.46 1297.74 1686.79 1293.89 1687.74C1290.17 1688.66 1286.55 1687.28 1282.81 1688.01C1277.7 1689 1274.15 1692.74 1269.49 1694.61C1263.08 1697.18 1252.83 1693.34 1249.99 1701.26C1248.88 1693.62 1241.55 1695.7 1236.08 1695.02C1227.09 1693.9 1218.22 1689.87 1209.57 1687.29C1202.47 1685.19 1177.94 1665.74 1173.25 1673.63C1173.25 1672.83 1174.11 1668.31 1173.36 1667.79C1170.75 1665.95 1170.77 1666.96 1167.95 1665.81C1163.64 1664.05 1161.82 1662.46 1158.74 1659.48C1152.51 1653.48 1144.12 1650.34 1137.56 1644.89C1121.06 1631.2 1115.42 1603 1111.39 1583.37C1106.13 1592.7 1108.07 1580.73 1108.98 1576.72C1111.13 1567.29 1108.36 1562.63 1107.74 1553.51C1107.16 1545.12 1110.98 1543.46 1118.55 1542.59C1127.88 1541.5 1136.86 1540 1146 1537.67C1154.73 1535.44 1163.28 1532.93 1171.15 1528.51C1178.36 1524.46 1185.92 1522.87 1193.29 1519.33C1201.41 1515.42 1209.38 1511.31 1217.58 1507.5C1221.28 1505.79 1237.55 1493.51 1240.38 1494.25C1246.17 1495.79 1240.7 1505.95 1238.93 1508.61C1234.39 1515.46 1226.93 1518.63 1220.2 1522.94C1214.13 1526.82 1195.72 1545.21 1214.41 1543.37C1226.79 1542.15 1235.18 1529.17 1243.1 1543.96C1245.9 1549.18 1250.01 1553.37 1246.8 1558.77C1242.31 1566.3 1229.36 1569.89 1222.57 1574.96C1216.79 1579.27 1204.95 1599.63 1216.88 1601.82C1220.31 1602.44 1225.59 1601.63 1228.14 1598.97C1229.86 1597.17 1229.74 1593.47 1231.48 1592.24C1233.95 1590.49 1238.74 1592.66 1241.55 1591.7C1245.56 1590.33 1246.5 1588.15 1247.97 1584.29C1252.26 1586.25 1252.32 1588.87 1257.2 1586.35C1258.82 1585.51 1259.42 1582.45 1261.3 1581.63C1263.82 1580.53 1264.57 1584.13 1265.95 1583.6C1269.7 1582.16 1269.69 1580.54 1270.88 1576.84ZM1013.88 1516.95C1006.7 1517.49 998.863 1518.07 992.736 1513.49C1000.18 1513.94 1006.75 1515.62 1014.21 1514.08C1017.17 1513.47 1021.92 1510.67 1024.96 1511.65C1035.75 1515.11 1016.76 1516.74 1013.88 1516.95ZM993.943 885.293C993.837 882.767 991.695 848.787 1003.3 862.135C1006.48 865.787 1003.05 870.677 1002.6 874.715C1001.84 881.521 1004.22 888.341 1007.81 894.072C1011.15 899.416 1017.4 904.096 1016.46 911.066C1015.64 917.181 1009.47 922.402 1006.43 927.476C998.955 915.691 994.545 899.476 993.943 885.293ZM968.431 528.676C941.535 531.507 914.774 536.515 888.841 544.246C863.379 551.834 839.644 563.699 815.718 575.067C810.787 553.952 805.623 532.893 800.752 511.761C798.41 501.592 796.171 491.395 793.978 481.189C792.416 473.935 786.738 460.406 789.107 453.269C790.365 449.487 792.024 449.47 794.729 447.135C796.381 445.71 799.26 442.223 800.972 441.476C805.143 439.663 815.853 438.074 820.121 438.332C824.011 438.566 826.045 440.112 830.047 438.994C833.454 438.042 836.316 435.419 839.514 433.983C847.65 430.324 857.808 429.097 866.509 427.16C874.884 425.298 883.53 424.883 891.925 423.038C899.276 421.42 902.771 416.007 909.043 416.203C925.363 416.713 943.411 414.8 959.604 410.9C977.772 406.526 997.537 407.371 1016.18 406.903C1023.6 406.717 1028.82 405.046 1028.86 413.315C1028.9 423.405 1024.87 434.734 1022.82 444.585C1018.26 466.426 1014.39 487.657 1012.67 509.834C1011.81 520.929 1007.26 520.154 998.242 523.556C988.208 527.341 979.103 527.556 968.431 528.676ZM827.018 752.763C833.645 753.741 832.884 735.614 833.37 731.928C849.171 761.728 866.965 790.406 880.888 821.183C884.141 828.38 887.097 835.744 890.536 842.853C892.888 847.722 898.153 854.257 898.028 859.921C897.892 865.83 893.12 868.042 888.09 870.233C882.654 872.599 880.531 873.78 876.698 871.044C872.061 867.728 868.19 857.518 865.326 852.596C860.952 845.08 856.764 837.458 852.48 829.894C844.72 816.179 835.563 803.049 829.187 788.653C823.215 775.165 814.177 763.558 807.739 750.309C801.363 737.188 792.638 724.748 785.308 711.905C792.669 708.843 801.844 701.19 810.207 701.615C818.846 702.054 818.636 710.393 819.01 717.339C819.404 724.715 816.935 751.27 827.018 752.763ZM848.239 887.399C844.298 892.074 835.41 894.823 829.96 897.416C822.41 901.008 814.682 904.203 807.169 907.866C782.519 919.896 757.972 930.906 732.861 941.952C719.88 947.661 707.058 953.73 694.392 960.104C687.755 963.441 673.134 975.14 665.5 975.437C656.748 975.777 656.543 958.104 654.616 951.475C652.995 945.927 649.989 941.609 647.965 936.352C647.141 934.202 647.781 932.575 646.525 930.447C645.096 928.022 641.089 926.068 639.029 923.979C630.282 915.095 623.032 903.785 615.644 893.777C608.877 884.61 597.334 873.131 594.088 861.896C587.705 839.81 624.788 827.586 638.976 818.713C663.817 803.177 688.779 787.218 712.461 769.958C723.246 762.095 733.807 753.92 744.649 746.126C749.708 742.492 763.727 728.347 770.221 733.387C772.639 735.263 772.685 740.456 773.694 743.178C775.899 749.126 779.246 754.318 782.637 759.653C785.649 764.377 789.93 769.262 791.812 774.534C794.055 780.821 793.952 784.381 798.057 790.02C805.524 800.274 809.05 812.105 815.994 822.56C822.688 832.64 829.119 840.076 833.498 851.34C836.009 857.795 839.973 863.521 843.474 869.458C845.124 872.261 846.848 875.017 848.326 877.92C850.973 883.107 851.908 883.04 848.239 887.399ZM636.353 973.662C631.615 977.052 624.64 971.353 620.045 971.276C618.045 971.239 616.06 972.799 614.724 972.756C610.708 972.635 607.426 969.938 603.729 968.682C586.661 962.876 566.312 962.654 551.733 950.864C522.769 927.438 536.578 880.436 541.853 849.987C542.928 843.778 544.862 835.181 539.846 830.095C534.347 824.521 526.075 827.846 521.042 832.358C515.879 836.98 512.368 843.457 508.076 848.857C501.239 857.457 493.777 865.586 486.239 873.568C459.459 901.928 431.099 934.379 397.97 955.191C384.192 963.849 371.721 975.582 356.619 982.179C338.453 990.115 357.102 959.478 360.367 954.501C381.748 921.919 412.875 896.129 439.016 867.528C443.95 862.13 450.956 854.854 451.043 847.077C451.175 835.401 440.863 836.449 432.708 839.69C425.081 842.723 421.26 850.27 415.124 855.426C407.485 861.848 398.559 867.055 390.056 872.235C371.716 883.412 352.248 892.789 332.838 901.933C323.76 906.21 314.639 910.395 305.517 914.58C303.013 915.73 288.049 925.223 288.764 917.085C288.861 915.991 298.407 904.396 299.586 903.966C305.464 901.817 308.379 908.303 313.61 899.803C317.327 893.765 317.841 890.633 323.089 886.051C323.983 885.274 324.596 883.303 325.32 882.025C325.231 882.506 329.218 878.627 328.455 879.301C329.503 878.376 331.025 876.681 331.875 875.57C335.978 870.213 343.863 870.112 347.428 863.99C348.787 861.659 348.017 858.67 349.657 856.356C351.954 853.11 357.006 851.729 359.701 848.874C362.012 846.42 363.918 844.421 365.352 842.921C366.34 841.887 368.074 841.163 369.243 839.98C372.153 837.036 371.923 834.43 375.995 831.954C379.652 829.735 381.332 831.812 382.598 826.313C387.046 829.165 386.489 824.992 388.295 822.002C390.642 818.114 393.625 816.38 396.861 813.566C403.981 807.374 410.656 798.156 416.713 790.36C431.778 770.975 443.962 748.307 448.449 723.985C449.524 718.17 450.115 712.294 450.543 706.397C450.77 703.296 449.758 695.744 451.678 692.706C454.66 687.992 460.319 689.863 464.625 687.801C466.088 687.098 467.532 685.033 468.904 684.565C470.824 683.908 473.174 684.548 475.166 683.915C475.942 683.671 476.12 681.394 477.4 681.101C479.912 680.527 482.407 681.439 484.889 681.473C490.321 681.546 495.682 680.589 500.891 678.858C505.63 677.283 509.595 673.673 514.324 672.371C513.841 672.506 522.117 673.163 521.67 672.697C522.066 670.659 522.463 668.621 522.859 666.582C526.001 668.777 536.714 671.671 540.037 671.171C545.379 670.364 544.253 665.549 548.782 671.874C551.346 669.637 553.909 667.401 556.471 665.165C558.413 673.313 571.787 669.36 577.849 669.809C586.391 670.446 593.119 668.843 600.903 671.816C610.37 675.438 618.673 679.254 628.869 680.242C635.993 680.93 638.957 684.28 645.936 686.347C655.316 689.122 656.058 692.184 653.123 701.769C650.745 709.541 648.689 715.533 652.165 723.507C658.33 737.647 675.083 743.472 685.886 753.243C660.581 771.004 635.597 788.474 611.138 807.401C600.888 815.327 589.989 823.267 584.152 835.193C578.769 846.201 575.717 859.428 572.478 871.211C565.047 898.225 585.978 916.406 607.479 928.29C611.93 930.746 642.574 969.211 636.353 973.662ZM594.621 1006.32C593.107 1001.12 593.305 999.732 598.321 997.868C600.22 997.162 607.496 996.24 608.675 998.846C611.341 1004.76 597.326 1004.68 594.621 1006.32ZM807.845 629.808C809.642 641.338 811.41 652.87 813.016 664.426C813.9 670.811 815.907 676.457 811.151 681.273C808.449 684.007 801.895 685.028 798.444 686.485C793.469 688.586 788.619 690.993 783.835 693.5C775.303 697.968 766.386 700.658 757.965 704.689C754.301 706.438 752.13 709.886 748.959 712.265C744.622 715.521 739.345 717.105 734.868 720.201C726.867 725.739 719.534 732.293 711.538 737.867C702.479 744.185 700.591 742.156 695.502 732.822C690.936 724.442 685.453 720.619 678.877 714.05C676.32 711.495 667.167 696.934 674.941 695.681C676.933 695.357 683.816 698.352 685.376 699.311C687.745 700.765 691.532 709.031 693.459 709.171C696.93 709.425 701.373 699.543 703.537 696.942C717.711 679.879 733.303 663.003 749.727 648.078C758.24 640.343 767.183 633.293 776.834 627.048C783.697 622.609 789.687 616.388 796.454 612.176C797.886 610.937 799.506 610.051 801.327 609.52C804.858 607.916 806.184 609.3 805.305 613.671C807.328 617.948 807.109 625.089 807.845 629.808ZM497.807 614.7C501.251 611.193 505.603 608.389 508.607 604.475C510.303 602.267 511.421 598.319 513.36 596.891C516.736 594.404 521.567 595.551 525.493 592.216C529.285 588.992 532.615 585.133 536.32 581.788C544.35 574.543 552.636 567.882 560.514 560.506C564.991 556.314 569.686 550.875 573.664 548.108C574.719 547.373 575.9 546.282 577.021 545.717C579.416 544.509 580.612 545.738 584.109 544.613C586.422 543.872 588.074 540.942 589.929 539.556C594.341 536.262 600.089 534.958 604.335 531.787C608.58 528.616 610.623 523.692 616.468 521.047C623.537 517.85 628.835 520.376 633.946 514.261C636.03 511.769 636.6 508.627 639.872 507.054C643.813 505.159 647.274 507.17 651.039 505.016C653.577 503.562 655.311 500.514 657.932 498.923C662.622 496.085 667.812 495.783 672.197 492.27C675.9 489.306 673.844 489.611 678.228 488.36C680.155 487.809 682.292 487.572 684.35 486.869C690.94 484.621 701.702 481.868 705.605 475.618C707.587 478.509 708.266 479.095 711.48 478.197C713.168 476.823 714.717 475.314 716.127 473.664C717.161 474.971 718.271 475.05 719.455 473.898C726.41 471.507 732.791 467.399 739.642 465.12C740.613 465.644 741.584 466.17 742.552 466.692C743.902 466.767 744.45 466.107 744.194 464.712C746.89 464.219 749.995 463.033 752.478 461.951C757.24 459.877 762.5 454.945 768.111 456.71C777.479 459.657 777.928 478.769 779.543 486.343C783.528 505.009 787.537 523.667 791.539 542.328C793.167 549.924 794.596 557.575 796.739 565.039C798.139 569.918 801.624 577.112 800.366 582.3C798.823 588.659 792.618 590.728 787.431 593.67C780.28 597.722 773.368 602.219 766.601 606.887C737.874 626.703 716.458 653.954 696.089 681.913C692.315 676.428 682.208 668.729 675.907 666.256C671.495 664.527 667.524 665.92 663.131 663.81C659.999 662.303 657.398 659.359 654.435 657.463C636.348 645.878 614.519 636.302 593.554 631.707C550.54 622.271 508.429 636.88 466.721 643.813C475.183 632.178 487.838 624.841 497.807 614.7ZM785.733 298.946C793.094 274.952 805.491 251.724 823.132 233.726C832.027 224.653 842.482 216.722 854.2 211.677C864.393 207.291 876.517 203.085 876.36 217.188C876.015 247.805 868.943 278.075 868.079 308.741C867.238 338.791 872.269 362.913 890.454 387.128C878.932 389.804 867.415 392.519 855.936 395.366C847.218 397.528 838.178 399.952 829.931 401.437C821.778 402.901 814.279 403.857 806.218 406.613C800.784 408.47 792.271 414.148 786.39 412.916C776.616 410.868 778.93 375.804 778.428 367.381C777.017 343.59 778.713 321.843 785.733 298.946ZM964.366 345.14C977.719 328.931 991.594 310.021 1014.06 307.012C1035.78 304.102 1043.78 330.153 1042.4 347.72C1041.94 353.663 1041.05 369.098 1036.74 373.913C1031.96 379.241 1023.48 375.225 1017.41 374.404C991.212 370.856 964.354 376.778 938.083 376.778C946.843 366.229 955.648 355.721 964.366 345.14ZM1071.86 409.779C1080.97 411.086 1088.25 412.474 1083.85 422.847C1075.04 443.623 1068.27 463.451 1075.99 486.099C1081.89 503.396 1100.55 524.392 1119.2 527.858C1125.74 529.072 1135.57 526.899 1139.59 533.538C1143.17 539.452 1139.29 557.186 1138.87 563.752C1137.32 588.214 1131.06 612.488 1115.22 631.709C1101.13 648.812 1083.94 662.199 1063.46 646.054C1046.18 632.448 1035.98 608.107 1030.87 587.304C1028.15 576.199 1027.81 565.119 1027.29 553.771C1026.83 543.734 1024.92 537.368 1036.27 535.286C1039.31 534.731 1046.91 534.905 1046.92 530.26C1046.94 524.02 1038.7 526.36 1035.54 526.044C1023.39 524.832 1029.08 510.694 1030.21 501.551C1032.14 485.981 1035.27 470.585 1038.14 455.172C1040.58 442.044 1040.71 424.839 1046.01 412.566C1049.11 405.398 1065.78 408.907 1071.86 409.779ZM1094.24 455.885C1095.62 447.422 1096.36 436.847 1104.76 432.169C1113.98 427.03 1118.6 435.403 1123.16 442.244C1135.23 460.396 1148.6 477.381 1150.57 499.913C1150.81 502.601 1151.96 507.996 1149.37 509.856C1148.22 510.687 1145.46 508.496 1143.67 508.627C1134.1 509.315 1127.18 511.877 1117.8 506.477C1099.45 495.904 1090.9 476.306 1094.24 455.885ZM1166.4 506.571C1164.43 486.867 1155.33 469.394 1145.16 452.759C1140.15 444.558 1130.42 435.591 1126.96 426.926C1125.11 422.284 1128.39 416.536 1135.13 418.526C1138.48 419.519 1144.95 428.421 1147.19 431.5C1152.95 439.416 1157.73 448.246 1162.29 456.889C1167.16 466.127 1181.01 500.027 1166.4 506.571ZM1105.98 310.369C1107.05 291.831 1107.16 270.542 1119.16 255.159C1128.47 243.228 1145.5 238.036 1159.33 233.424C1177.94 227.21 1200.31 226.251 1219.78 228.259C1236.92 230.028 1249.85 241.697 1260.43 254.528C1271.18 267.577 1279.51 284.378 1286.91 299.559C1288.76 303.358 1304.46 327.733 1293.84 327.165C1289.63 326.938 1285.97 318.715 1282.74 316.286C1280.22 314.385 1277.22 314.619 1274.96 313.098C1272.53 311.468 1273.05 309.958 1271.17 307.944C1258.2 294.091 1246.27 302.068 1232.28 309.364C1231.62 304.532 1232.77 295.555 1228.73 292.024C1223.44 287.402 1217.92 294.724 1214.12 298.313C1210.67 301.585 1206.42 307.546 1202.07 309.316C1196.42 311.612 1198.34 309.171 1193.44 307.241C1183.56 303.358 1175.97 314.853 1170.98 321.538C1169.12 324.031 1166.07 330.327 1162.74 331C1159.51 331.65 1159.09 329.353 1156.31 328.506C1148.45 326.108 1146.27 331.715 1143.77 338.678C1140.95 346.507 1138.55 354.052 1134.38 361.365C1127 374.304 1123.82 378.562 1129.66 392.852C1121.14 394.118 1119.35 395.134 1115.12 387.568C1110.77 379.77 1109.64 373.302 1109.91 364.34C1110.48 345.597 1104.89 329.407 1105.98 310.369ZM1303.89 399.054C1312.82 415.174 1318.49 437.608 1318.4 455.974C1318.35 465.086 1317.81 476.292 1313.56 484.558C1309.48 492.489 1300.94 496.46 1293.07 499.838C1274.1 507.987 1252.73 507.892 1232.79 504.26C1222.44 502.372 1212.37 503.591 1203.51 497.372C1196.84 492.687 1188.8 488.14 1186.85 479.554C1186.03 475.961 1187.29 472.949 1187.03 469.423C1187.36 467.745 1187.24 466.11 1186.67 464.511C1185.51 463.842 1184.33 463.19 1183.15 462.555C1182.22 459.877 1184 456.892 1183.55 454.095C1183 450.719 1180.19 447.97 1178.88 444.911C1175.27 436.472 1177.85 431.753 1184.61 426.023C1186.22 424.75 1187.85 423.492 1189.48 422.243C1190.95 419.92 1192.58 419.91 1194.35 422.212C1197.57 422.255 1197.47 423.248 1200.86 422.262C1208.27 420.103 1214.48 412.218 1221.74 409.448C1224.56 408.371 1228.77 409.286 1231.06 407.301C1233.11 405.526 1231.79 401.802 1233.59 400.061C1239.33 394.492 1248.37 399.771 1253.68 391.676C1258.01 385.071 1257.09 375.7 1257.54 368.202C1270.84 370.745 1276.61 383.499 1287.54 389.913C1289.7 381.53 1290.02 381.781 1298.36 379.48C1294.58 386.476 1300.7 393.284 1303.89 399.054ZM1314.08 310.067C1316.53 313.226 1318.4 321.067 1314.08 321.823V310.067ZM1325.44 338.588C1345.75 338.63 1358.74 364.316 1364.67 380.229C1371.12 397.532 1377.91 420.613 1365.88 437.465C1361.27 443.928 1355.61 444.519 1348.18 443.681C1339.23 442.672 1334.64 441.377 1338.15 431.816C1344.71 413.899 1339.77 391.12 1328.15 376.121C1344.14 373.032 1334 358.363 1325.98 352.873C1316.6 346.464 1309.03 338.552 1325.44 338.588ZM861.577 1267.2C856.798 1279.88 851.939 1292.52 847.928 1305.58C844.126 1317.96 846.329 1331.91 841.603 1343.82C838.695 1342.38 837.862 1339.82 835.333 1338.27C833.776 1337.31 831.061 1336.93 829.723 1335.87C827.424 1334.06 821.848 1327.31 820.336 1324.69C815.115 1315.62 818.597 1300.89 821.389 1291.57C824.842 1280.04 830.745 1268.96 838.668 1259.87C844.228 1253.5 847.295 1255.52 854.726 1258.66C859.121 1260.52 863.647 1261.7 861.577 1267.2ZM825.366 1367.24C821.548 1374.96 814.491 1381.33 810.299 1389.11C805.901 1397.29 802.571 1406.5 796.961 1413.97C791.251 1421.6 786.12 1420.32 778.256 1423.61C775.433 1424.79 774.245 1426.97 771.975 1428.68C767.715 1431.87 763.044 1433.83 758.566 1436.68C755.383 1428.86 745.656 1389.64 733.276 1390.48C722.517 1391.21 728.021 1411.74 729.407 1417.8C730.581 1422.92 731.921 1428.12 733.706 1433.06C735.508 1438.05 741.123 1445.52 739.046 1450.99C736.406 1457.94 729.837 1457.49 726.548 1452.41C723.797 1448.17 722.401 1442.41 720.373 1437.79C718.59 1433.74 710.444 1411.53 703.402 1414.97C696.618 1418.29 707.169 1439.82 708.935 1444.05C713.2 1454.26 721.377 1464.07 710.57 1472.26C694.164 1484.68 673.963 1494.03 655.584 1502.99C644.857 1508.21 635.211 1515.09 623.95 1519.33C613.493 1523.27 601.408 1523.94 591.296 1528.47C588.808 1529.59 590.477 1530.98 586.843 1531.63C583.795 1532.17 578.47 1530.71 575.202 1530.74C569.788 1530.79 564.363 1531.2 558.961 1530.52C555.916 1530.14 548.987 1526.81 550.083 1532.31C545.777 1531.12 544.111 1526.77 540.969 1524.06C538.17 1521.63 534.596 1520.32 531.471 1518.42C525.01 1514.49 520.18 1510.01 518.241 1502.52C513.691 1484.93 523.31 1466.62 535.183 1454.36C541.998 1447.32 549.992 1441.47 556.239 1433.89C558.432 1431.24 559.992 1428.15 562.774 1425.99C566.182 1423.34 570.857 1423.01 574.156 1420.33C576.613 1418.34 577.347 1415.16 579.921 1413.33C583.727 1410.63 588.181 1411.75 591.777 1408.2C593.827 1406.17 600.867 1396.63 600.374 1393.98C602.301 1394.63 604.233 1395.27 606.158 1395.92C607.332 1390.04 617.477 1382.78 622.481 1379.96C625.012 1378.54 629.944 1378.61 631.828 1377.07C634.332 1375.03 634.127 1370.75 636.114 1368.19C641.816 1360.85 653.746 1357.55 661.298 1352.44C670.903 1345.93 680.232 1338.56 688.909 1330.86C706.447 1315.3 721.909 1297.21 734.539 1277.45C739.628 1269.49 744.349 1261.37 747.972 1252.65C750.203 1247.28 752.427 1237.73 757.936 1234.62C763.626 1231.4 776.691 1235.76 783.062 1236.22C792.42 1236.89 807.007 1236.47 815.395 1241.07C824.362 1245.99 817.071 1250.06 812.456 1255.92C805.701 1264.5 801.653 1275 798.279 1285.29C795.681 1293.21 795.195 1300.87 793.495 1308.85C791.701 1317.29 791.718 1328.68 795.876 1336.44C799.994 1344.11 829.663 1358.55 825.366 1367.24ZM471.65 1522.8C451.504 1495.37 468.182 1455.22 487.891 1433.05C511.67 1406.3 545.512 1391.26 573.311 1369.51C605.455 1344.36 638.469 1321 666.952 1291.5C681.389 1276.55 693.959 1260.43 705.358 1243.06C715.033 1228.3 722.058 1208.65 741.608 1206.52C730.076 1220.89 729.402 1241.61 720.486 1257.61C711.046 1274.56 697.128 1288.66 682.954 1301.69C653.027 1329.2 620.704 1354.4 588.379 1378.99C571.879 1391.54 555.836 1404.65 539.392 1417.26C524.665 1428.56 509.197 1438.22 500.71 1455.43C486.068 1485.13 485.194 1529.12 517.618 1547.41C500.911 1544.08 482.119 1537.05 471.65 1522.8ZM2228.21 285.786C2222.25 273.861 2211.08 269.613 2199.86 264.947C2188.89 260.38 2178.85 254.755 2166.67 253.294C2161.26 252.645 2145.99 254.258 2145.28 246.411C2144.68 239.873 2160.64 233.31 2164.31 228.329C2169.77 220.945 2173.47 208.957 2171.35 199.631C2169.35 190.788 2160.75 187.994 2152.72 186.391C2127.74 181.41 2101.18 185.073 2076.14 187.12C2079.2 182.833 2083.52 179.316 2085.98 174.181L2089.95 182.436C2092.21 177.716 2094.67 173.082 2097.48 168.661C2099.38 170.798 2101.28 172.938 2103.19 175.075C2100.02 163.976 2110.66 164.032 2109.54 154.676C2109.1 151.037 2106.64 149.443 2106.03 146.518C2104.85 140.702 2109.34 137.065 2104.23 131.672C2098.54 125.666 2089.24 128.048 2082.62 128.609C2081.79 128.681 2080.58 130.325 2079.51 130.459C2078.02 130.647 2077.16 128.598 2075.32 128.707C2070.38 128.998 2066.03 132.832 2061.13 133.997C2038.39 139.397 2015.64 149.027 1993.82 158.017C1971.61 167.17 1949.8 177.827 1930.43 192.191C1909.7 207.565 1894.72 227.328 1878.17 246.8C1870.39 255.951 1862.33 264.739 1856.41 275.281C1853.35 280.729 1850.58 297.842 1845.07 300.329C1839.09 303.029 1824.04 295.391 1817.92 293.98C1803.52 290.664 1789.18 289.281 1774.41 289.947C1762.66 290.474 1750.27 290.16 1738.62 291.597C1731.86 292.43 1715 299.933 1713.92 308.326C1713.44 312.054 1717.72 315.155 1718.67 318.65C1720.12 323.934 1717.73 329.535 1719.4 334.831C1722.8 345.631 1738.59 349.604 1747.9 353.004C1773.88 362.502 1800.22 369.868 1826.47 378.369C1837.88 382.066 1847.63 387.949 1857.96 393.857C1866.53 398.752 1874.35 403.652 1865.69 412.846C1857.49 421.555 1858.52 425.071 1860.96 437.069C1863.53 449.731 1864.43 462.536 1867.78 475.074C1871.13 487.563 1877.37 499.491 1876.15 512.703C1874.94 525.872 1869.49 539.399 1864.39 551.469C1859.25 563.661 1853.56 575.709 1847.97 587.705C1842.8 598.802 1837.2 610.053 1825.23 614.789C1802.38 623.829 1773.18 622.397 1749.36 619.112C1722.33 615.386 1694.41 609.068 1668.84 599.422C1644.26 590.149 1617.22 575.924 1596.89 559.118C1586.03 550.141 1574.27 543.49 1562.75 535.455C1551.07 527.314 1542.2 516.335 1531.97 506.588C1511.91 487.483 1487.22 474.319 1461.81 463.816C1433.24 452.008 1403.75 453.235 1373.47 451.958C1378.24 442.595 1384.37 433.647 1386.62 423.224C1388.97 412.368 1387.27 400.573 1385.79 389.727C1382.9 368.617 1377.44 350.038 1364.11 332.988C1358.02 325.192 1350.91 319.114 1340.76 317.981C1334.61 317.293 1323.24 322.016 1318.8 316.807C1316.85 314.511 1317.31 309.68 1316.08 306.852C1314.99 304.341 1312.8 301.812 1311.61 299.086C1306.53 287.423 1300.19 277.116 1293.86 266.053C1291.34 261.653 1289.39 255.159 1285.95 251.456C1284.08 249.442 1281.68 248.527 1280.64 247.054C1278.68 244.296 1277.78 239.255 1276.15 236.144C1273.36 230.819 1269.81 225.87 1265.71 221.475C1259.16 214.451 1250.73 208.252 1241.75 204.753C1236.76 202.809 1233.1 202.349 1227.89 202.634C1226.37 202.717 1224.67 203.597 1223.14 203.481C1219.49 203.203 1220.06 201.893 1217.13 201.285C1197.55 197.205 1171.28 202.929 1152.9 209.956C1133.55 217.357 1117.83 227.116 1106.07 244.653C1077.18 287.723 1083.91 343.334 1096.16 390.773C1088.75 388.826 1081.37 386.525 1073.89 384.875C1069.3 383.863 1063.05 384.054 1058.96 381.634C1049.85 376.251 1057.26 362.439 1057.31 353.516C1057.45 330.839 1046.75 295.379 1023.41 285.801C999.097 275.819 969.515 303.834 954.484 319.72C944.841 329.911 936.072 340.895 926.844 351.451C920.396 358.831 911.88 370.595 900.576 368.668C875.92 364.463 883.441 317.554 884.535 301.699C886.266 276.636 889.957 251.169 889.976 226.041C889.988 210.766 887.346 190.159 868.588 188.368C842.774 185.905 818.319 209.386 803.266 227.453C763.565 275.092 754.797 338.062 765.415 397.844C766.973 406.608 771.943 417.42 762.459 422.861C750 430.01 734.073 434.338 720.684 439.588C690.742 451.32 663.018 466.97 634.829 482.266C606.921 497.414 579.46 512.447 554.281 531.961C529.181 551.414 504.335 572.026 481.47 594.08C470.075 605.074 459.077 616.543 448.702 628.512C438.941 639.77 431.032 652.558 420.42 663.08C413.196 670.246 399.909 679.853 398.322 690.783C397.04 699.605 411.919 705.723 418.633 709.799C423.236 712.596 426.426 712.509 426.759 717.494C427.17 723.71 420.618 733.672 418.285 739.599C412.342 754.717 404.575 767.241 394.362 779.821C371.742 807.691 344.409 831.319 318.464 856.076C294.36 879.079 270.738 901.72 253.067 930.263C248.737 937.257 237.963 951.62 248.203 958.164C250.853 959.86 258.984 961.2 261.682 959.381C265.027 957.126 263.331 953.728 267.282 951.467C266.292 959.068 300.803 944.217 303.488 942.841C310.741 939.124 317.3 934.767 324.714 931.437C329.064 929.481 329.59 926.759 332.957 924.578C334.758 923.412 334.78 924.977 337.188 924.252C339.357 923.595 344.448 923.347 346.066 921.258C346.109 921.197 347.877 916.14 346.375 917.186C352.253 913.092 355.728 919.287 352.2 925.102C341.764 942.285 328.571 954.928 324.482 975.579C322.997 983.08 320.464 997.005 325.043 1003.84C325.209 1004.09 326.75 1003.37 326.939 1003.63C327.112 1003.88 328.793 1006.22 329.484 1006.88C333.529 1010.75 333.268 1012.48 340.021 1012.32C343.015 1012.24 348.988 1011.86 351.729 1010.51C353.791 1009.49 354.798 1006.98 356.385 1006.09C357.989 1005.18 357.8 1004.71 359.305 1004.19C359.614 1004.07 360.206 1006.71 360.793 1006.6C364.009 1005.99 365.396 1004.07 368.129 1002.52C376.005 998.066 383.726 993.163 391.224 988.673C398.774 984.155 404.413 977.854 411.931 972.606C419.92 967.03 426.453 962.755 432.597 955.018C436.849 949.659 441.926 947.707 444.78 945.07C448.169 941.938 454.011 929.848 459.471 928.411C461.959 927.754 463.949 929.957 465.311 929.053C466.844 928.039 465.173 926.095 465.941 924.953C467.378 922.82 467.557 922.465 470.001 920.509C473.128 918.007 476.973 917.336 479.598 914.075C482.518 910.446 482.919 906.379 486.51 902.981C495.151 894.803 502.843 886.189 511.998 878.265C508.463 897.984 504.958 917.563 507.699 937.617C510.354 957.053 518.601 965.757 534.789 975.62C538.353 977.794 542.092 980.953 545.92 982.491C548.245 983.428 551.75 982.87 553.484 983.558C559.355 985.887 557.357 990.651 558.162 996.02C559.41 1004.34 567.059 1010.75 571.995 1017.23C576.146 1022.68 583.633 1035.09 590.579 1036.97C596.851 1038.67 602.767 1031.34 607.991 1028.21C615.867 1023.5 624.447 1020.13 632.753 1016.28C648.974 1008.76 664.648 999.792 680.689 991.842C688.016 988.212 695.415 986.734 703.17 984.389C712.485 981.573 720.433 976.185 729.366 972.51C745.429 965.9 760.82 958.012 776.785 951.071C809.83 936.707 845.87 926.839 875.276 905.287C888.578 895.538 905.705 894.499 918.816 885.025C932.481 875.147 924.1 860.044 918.251 847.923C902.266 814.81 892.727 780.422 870.721 750.256C859.288 734.582 848.725 718.387 838.753 701.726C829.933 686.98 830.112 670.277 827.9 653.621C826.417 642.49 825.028 631.311 823.217 620.228C822.07 613.183 818.363 604.308 822.847 597.925C827.665 591.064 839.11 588.144 846.343 584.524C855.332 580.027 864.036 575.187 873.363 571.379C894.676 562.68 917.123 556.659 939.482 551.344C946.147 549.76 974.686 538.426 980.117 545.065C973.444 549.525 971.498 557.623 968.503 564.566C964.048 574.91 959.447 584.766 956.196 595.604C949.478 618.018 943.764 640.79 938.286 663.532C932.845 686.113 926.363 708.872 924.699 732.136C923.847 744.011 924.431 755.893 924.41 767.78C924.388 780.466 921.758 792.908 922.226 805.626C922.54 814.083 923.25 824.243 928.204 831.457C932.792 838.142 940.598 838.888 947.398 842.462C956.373 847.179 959.886 849.191 959.969 859.454C960.068 871.416 959.295 883.163 960.413 895.117C964.311 936.745 978.294 986.145 1006.2 1018.28C1008.06 1020.42 1062.21 1088.73 1068.21 1078.73C1072.34 1083.62 1078.51 1085.41 1083.59 1089.68C1091.58 1096.37 1099.42 1101.73 1106.02 1110.03C1118.04 1125.13 1128.26 1142.83 1131.26 1162.14C1133.84 1178.76 1132.29 1198.62 1122.92 1213.03C1113.52 1227.48 1093.42 1236.96 1078.25 1244.07C1058.31 1253.42 1038.07 1254.47 1016.42 1252.13C1005.73 1250.97 995.132 1249.16 984.525 1247.46C980.112 1246.75 974.966 1246.75 970.788 1245.08C966.308 1243.3 964.791 1241.33 960.319 1241.11C956.979 1240.95 955.153 1241.69 951.622 1240.95C947.251 1240.04 942.505 1238.38 938.146 1237.26C933.299 1236.01 929.324 1234.23 924.859 1231.94C920.724 1229.82 916.066 1229.41 912.086 1227.4C905.227 1223.94 903.111 1218.15 893.833 1221.36C884.037 1224.75 886.085 1233.22 879.833 1239.03C874.276 1244.2 867.393 1239.42 861.862 1236.35C853.724 1231.83 845.271 1228.07 836.606 1224.65C827.245 1220.95 817.684 1217.74 807.942 1215.19C797.287 1212.41 785.583 1211.86 775.319 1207.81C766.299 1204.25 762.418 1197.37 755.883 1190.94C749.01 1184.17 739.686 1181.59 730.158 1182.2C712.809 1183.29 700.958 1202.05 691.793 1215.08C666.186 1251.48 637.882 1282.48 603.654 1311.07C587.299 1324.73 568.865 1336.34 553.049 1350.52C546.379 1356.5 541.534 1362.1 533.634 1366.56C523.257 1372.4 513.841 1379.74 503.92 1386.34C465.117 1412.12 436.656 1449.69 447.386 1498.75C452.216 1520.83 461.864 1536.33 479.89 1549.62C488.075 1555.65 495.564 1560.67 505.99 1560.32C515.833 1559.99 524.518 1559.65 518.719 1547.93C526.066 1550.21 532.214 1555.82 540.235 1558.7C549.475 1562.01 561.497 1564.07 571.307 1564.27C587.016 1564.59 605.494 1556.31 619.25 1552.8C623.095 1551.82 630.507 1550.21 634.887 1546.6C638.372 1543.72 637.616 1540.32 642.891 1538.95C649.803 1537.17 652.435 1539.26 659.055 1535.07C668.657 1528.99 679.071 1525.38 689.033 1519.77C702.453 1512.23 715.354 1503.71 728.649 1495.94C730.422 1500.82 740.838 1529.86 747.271 1515.86C752.869 1503.68 734.694 1493.25 745.742 1480.91C756.284 1469.14 758.487 1481.51 768.712 1486.97C782.908 1494.56 780.777 1480.39 776.65 1472C775.001 1468.65 771.53 1463.59 772.552 1459.68C774.523 1452.12 780.635 1456.56 785.441 1457.33C793.01 1458.54 799.127 1456.46 804.81 1451.38C809.548 1447.15 817.385 1443.49 820.249 1437.91C821.681 1435.12 821.932 1431.28 823.123 1428.31C824.695 1424.4 825.816 1425.35 826.388 1420.5C825.84 1417.99 825.622 1415.45 825.733 1412.88C826.977 1412.63 828.216 1412.38 829.455 1412.12C829.494 1411.95 829.581 1407.05 829.081 1407.78C830.24 1406.1 832.73 1405.38 834.162 1403.05C835.478 1400.9 834.254 1396.78 834.783 1394.24C835.855 1389.1 838.777 1384.95 841.166 1380.38C846.218 1401.76 844.757 1424.05 849.584 1445.45C853.55 1463.01 862.58 1478.75 873.114 1493.15C877.997 1499.83 884.462 1504.56 889.573 1510.91C893.898 1516.28 896.062 1521 902.445 1524.17C906.693 1526.28 911.47 1527.37 915.846 1529.19C918.645 1530.35 925.016 1535.71 927.641 1535.62C925.354 1535.7 931.94 1535.9 930.413 1535.64C930.527 1535.66 929.633 1532.78 930.428 1532.82C939.974 1541.86 949.949 1541.89 960.997 1547.51C966.059 1550.08 967.953 1549.92 973.348 1550.87C980.339 1552.11 986.222 1556.09 992.917 1556.52C1003.22 1557.17 1014.83 1558.56 1025.57 1558.18C1028.5 1558.07 1033.99 1556.19 1036.28 1558.75C1037.8 1560.43 1034.92 1572.64 1034.74 1575.43C1032.85 1604.74 1036.77 1635.5 1049.13 1662.31C1059.38 1684.55 1070.31 1710.85 1088.44 1727.83C1108.54 1746.65 1136.69 1759.91 1163.57 1764.99C1193.33 1770.6 1222.83 1766.4 1252.69 1764.65C1282.98 1762.88 1311 1758.58 1340.21 1749.8C1367.37 1741.63 1393.1 1730.99 1419.1 1719.77C1436.77 1712.13 1459.19 1701.15 1449.92 1677.97C1447.68 1672.37 1438.99 1656.79 1431.3 1664.48C1424.5 1671.28 1435.87 1684.15 1441.02 1688.47C1402.23 1715.53 1355.15 1724.47 1309.76 1734.06C1284.83 1739.32 1260.27 1739.1 1234.92 1739.17C1213.43 1739.23 1191.95 1739.85 1170.6 1736.85C1151.29 1734.14 1128.8 1729.04 1114.43 1714.92C1099.4 1700.15 1085.17 1682.51 1074.91 1664.08C1063.65 1643.85 1060.92 1621.98 1060.01 1599.17C1059.53 1587.16 1058.99 1575 1060.25 1563.02C1061.16 1554.32 1065.6 1553.29 1067.8 1546.42C1072.89 1553.55 1076.24 1550.91 1082.49 1546.75C1086.52 1558.02 1084.72 1569.74 1084.03 1581.37C1083.36 1592.7 1084.86 1604.18 1086.25 1615.43C1088.6 1634.56 1097.77 1654.5 1109.39 1669.9C1114.64 1676.86 1122.52 1679.8 1129.64 1684.61C1138.73 1690.74 1148.15 1696.44 1157.63 1701.95C1175.48 1712.3 1194.97 1721.16 1215.09 1722.72C1222.14 1723.27 1227.27 1726.94 1235.67 1726.43C1240.66 1726.12 1245.68 1724.42 1250.66 1724.55C1255.64 1724.69 1259.93 1726.28 1265.05 1725.91C1286.34 1724.37 1308.28 1717.39 1329.36 1713.56C1352.19 1709.42 1375.15 1704.95 1396.93 1696.76C1406.37 1693.21 1414.17 1688.64 1419.44 1679.72C1423.2 1673.35 1422.22 1661.93 1429.23 1658.12C1424.64 1652.19 1426.34 1651.14 1430.31 1645.84C1432.16 1643.37 1438.14 1636.83 1430.89 1636.95C1433.1 1627.41 1429.41 1618.17 1427.84 1608.83C1427.16 1604.8 1427.34 1598.69 1424.85 1595.22C1423.39 1593.2 1420.97 1593.16 1419.67 1591.67C1418.32 1591.64 1417.27 1591.08 1416.52 1589.99C1416.43 1588.39 1417.17 1587.42 1418.75 1587.07C1418.39 1583.92 1420.72 1585.05 1418.39 1580.11C1415.2 1573.38 1409.16 1567.51 1403.43 1562.93C1398.56 1559.03 1394.97 1552.09 1389.34 1550.01C1382.01 1547.3 1374.33 1544.36 1366.63 1541.84C1349.18 1536.13 1331.89 1533.95 1313.58 1537.12C1305.19 1538.57 1296.93 1540.34 1288.83 1542.93C1284.09 1544.45 1276.85 1548.55 1272.65 1544.13C1271.21 1542.62 1268.2 1529.75 1268.39 1528.36C1269.14 1522.77 1280.54 1520.52 1284.69 1518.57C1291.05 1515.59 1302.82 1512.41 1306.86 1506.5C1308.55 1504.02 1306.64 1493.5 1306.91 1493.31C1309.58 1491.51 1320.77 1517.06 1323.82 1518.81C1328.23 1521.33 1340.61 1518 1345.16 1517.5C1358.76 1516 1372.58 1515.15 1385.89 1511.91C1411.42 1505.69 1436.49 1496.07 1461.34 1487.57C1508.61 1471.4 1554.24 1450.09 1596.73 1423.62C1616.57 1411.25 1636.29 1395.45 1651.39 1377.5C1658.2 1369.4 1663.01 1359.8 1669.97 1351.86C1677.99 1342.7 1675.46 1334.44 1679.06 1322.96C1686.34 1299.74 1695.18 1278.65 1699.14 1254.31C1703.22 1229.25 1704.91 1203.67 1703.78 1178.3C1701.54 1128.17 1699.11 1080.63 1677.08 1034.57C1656.89 992.349 1630.73 951.1 1599.62 916.148C1592.39 908.026 1584.75 900.285 1575.87 893.968C1566.31 887.162 1555.79 881.825 1547.13 873.788C1540.03 867.192 1534.09 859.423 1526.66 853.161C1517.54 845.481 1506.69 842.085 1496.01 837.178C1485.77 832.478 1476.43 826.364 1465.96 822.084C1459.59 819.483 1453.13 817.08 1446.49 815.264C1441.58 813.921 1435.06 813.837 1430.57 811.286C1423.47 807.251 1416.2 795.509 1411.56 788.875C1404.79 779.198 1401.12 767.939 1397.9 756.687C1393.98 742.999 1390.34 729.226 1386.51 715.511C1385.2 710.826 1380.31 694.517 1390.07 698.475C1392.92 699.632 1395.6 704.779 1397.8 706.976C1401.97 711.149 1407.11 714.878 1412.28 717.716C1420.63 722.292 1429.31 727.803 1437.31 730.958C1444.36 733.737 1451.61 739.186 1458.18 743.105C1459.18 743.702 1459.47 745.75 1460.76 746.322C1463.79 747.667 1465.8 743.958 1468.67 744.866C1472.57 746.107 1473.22 749.79 1475.38 752.719C1478.53 756.967 1480.16 757.306 1484.96 759.491C1490.3 761.923 1494.22 766.729 1499.43 769.113C1505.76 772.003 1519.69 769.76 1520.64 779.732C1530.47 773.308 1542.8 785.781 1548.94 792.254C1555.12 782.767 1566.06 793.874 1575.41 790.725C1570.24 797.917 1571.18 797.202 1579.34 798.091C1586.23 798.844 1590.35 803.421 1597.16 806.08C1601.88 807.92 1607.09 811.016 1612 812.313C1616.63 813.54 1620.14 810.789 1624.18 811.477C1626.96 811.951 1629.61 814.358 1632.25 815.015C1635.61 815.851 1640.39 816.865 1644.18 817.766C1648.8 818.862 1653.39 817.855 1657.99 818.727C1663.37 819.744 1668 822.944 1673.46 823.982C1679.54 825.139 1685.86 824.366 1691.9 825.842C1697.41 827.185 1700.76 828.73 1706.47 828.786C1714.98 828.87 1724.48 829.996 1732.89 829.035C1737.36 828.523 1739.84 826.252 1744.91 828.472C1748.29 829.952 1750.31 834.524 1754.92 832.43C1750.06 830.481 1754.32 822.893 1759.68 828.706C1760.95 825.446 1761.77 823.627 1765.29 822.557C1765.12 825.748 1764.6 828.95 1768.66 829.619C1768.98 827.397 1769.29 825.18 1769.6 822.958C1778.44 829.692 1780.54 832.068 1788.88 823.852C1788.66 826.542 1787.52 829.585 1790.26 831.491C1792 828.581 1793.76 825.673 1795.51 822.765C1798.46 832.15 1812.57 828.911 1819.41 827.247C1822.07 826.603 1829.39 825.584 1831.13 823.408C1832.33 821.901 1832.18 820.72 1832.62 819.795C1833.02 818.974 1828.52 816.955 1832.35 815.776C1835.23 814.885 1837.48 821.205 1840.86 820.954C1843.88 820.729 1845.1 815.619 1847.27 814.583C1847.48 814.486 1848.95 816.645 1849.97 816.172C1851.56 815.438 1852.46 813.503 1854.21 812.818C1858.01 811.332 1862.92 811.702 1867.16 809.941C1872.55 807.71 1877.99 806.645 1883.49 804.805C1890.46 802.474 1893.62 797.893 1899.29 794.145C1900.61 793.265 1902 793.777 1903.3 793.157C1905.06 792.319 1906.9 790.355 1908.99 789.43C1915.54 786.523 1921.14 784.545 1927.36 780.533C1932.91 776.954 1940.23 774.312 1945.16 770.018C1949.27 766.444 1951.49 761.228 1955.62 757.59C1961.55 752.369 1976.89 745.82 1974.4 735.621C1984.32 737.138 1986.75 730.711 1990.4 723.623C1993.86 716.88 2000.96 714.859 2005.61 708.71C2007.61 706.054 2010.85 702.368 2011.95 699.335C2012.62 697.531 2010.96 695.647 2011.41 694.416C2013.47 688.75 2021.41 686.277 2025.09 681.167C2029.77 674.665 2031.27 666.445 2035.17 659.767C2035.94 658.453 2037.83 657.673 2038.56 656.272C2039.03 655.372 2038.05 653.14 2038.62 652.256C2039.98 650.158 2042.12 649.433 2043.49 647.489C2046.8 642.782 2047.4 636.09 2050.38 630.753C2051.11 629.439 2053.66 625.768 2053.98 624.986C2055.05 622.358 2054.73 620.631 2055.28 617.707C2055.45 616.828 2057.15 611.739 2057.5 611.012C2058.59 608.742 2059.64 608.406 2061.31 605.914C2065.49 599.676 2068.08 589.878 2068.42 582.305C2068.57 579.093 2067.5 575.772 2068.66 572.707C2069.66 570.058 2072.76 568.423 2073.92 565.648C2076.98 558.372 2076.48 548.084 2077.32 540.3C2078.24 531.816 2080.95 523.452 2081.7 515.031C2082.06 510.955 2080.15 507.344 2080.29 503.504C2080.45 499.106 2082.73 498.285 2083.61 494.627C2084.62 490.449 2083.15 485.635 2084.04 481.156C2084.88 476.987 2086.09 473.13 2086.44 468.856C2087.34 457.722 2086.07 446.075 2085.58 434.936C2085.4 430.614 2084.82 426.105 2085.96 421.874C2086.88 418.468 2090.64 414.66 2090.52 410.967C2090.13 399.554 2081.01 409.431 2075.76 408.649C2069.66 407.738 2068.54 394.05 2066.93 388.858C2063 376.174 2059.07 363.49 2055.15 350.809C2073.87 345.933 2093.34 347.338 2112.46 346.022C2131.24 344.73 2149.58 340.653 2167.79 336.062C2183.17 332.189 2200 329.94 2213.82 321.666C2225.42 314.721 2234.99 299.349 2228.21 285.786Z" fill="black"/>
<path id="ink 2" fill-rule="evenodd" clip-rule="evenodd" d="M409.878 531.316C417.367 527.423 415.479 522.042 420.98 517.043C451.762 489.067 487.889 464.639 524.095 444.469C562.241 423.216 605.042 414.218 644.031 395.385C649.276 392.852 656.089 388.891 654.133 381.835C651.846 373.59 643.995 377.384 638.399 379.33C619.75 385.815 599.903 388.256 580.989 393.953C540.614 406.113 502.804 427.083 468.602 451.627C448.705 465.902 429.643 481.687 412.651 499.418C406.393 505.943 398.05 513.558 396.422 522.96C394.405 534.595 401.283 535.784 409.878 531.316Z" fill="black"/>
<path id="ink 3" fill-rule="evenodd" clip-rule="evenodd" d="M526.476 1262.79C526.297 1252.51 515.099 1256.25 509.339 1257.63C485.918 1263.25 464.982 1267.55 444.256 1280.57C405.789 1304.73 376.645 1341.44 357.788 1382.06C355.277 1387.46 345.167 1404.59 353.27 1409.69C358.612 1413.05 361.853 1403.26 363.847 1399.62C374.003 1381.12 387.602 1364.74 401.276 1348.66C431.633 1312.96 468.126 1290.3 511.788 1273.76C517.145 1271.73 526.611 1270.27 526.476 1262.79Z" fill="black"/>
<path id="ink 4" fill-rule="evenodd" clip-rule="evenodd" d="M1820.89 1010.23C1812.79 993.933 1799.69 973.821 1781.56 967.107C1771.54 963.393 1765.6 969.539 1768.58 979.81C1770.95 987.978 1778.85 991.968 1784.75 997.384C1799.93 1011.32 1809.28 1032.13 1814.83 1051.46C1820.69 1071.89 1821.86 1094.06 1821.75 1115.2C1821.7 1126.37 1818.72 1136.08 1817.1 1146.94C1816.46 1151.22 1815.38 1160.63 1820.29 1163.3C1831.17 1169.21 1836.2 1138.35 1837.31 1132.41C1841.4 1110.52 1841 1090.36 1837.56 1068.5C1834.4 1048.52 1829.98 1028.51 1820.89 1010.23Z" fill="black"/>
<path id="ink 5" fill-rule="evenodd" clip-rule="evenodd" d="M1789.77 226.992C1794.2 221.023 1790.97 212.668 1792.29 205.862C1793.66 198.729 1797.78 191.514 1801.26 185.274C1808.79 171.804 1817.18 158.575 1826.12 146.011C1835.35 133.036 1846.61 121.981 1856.42 109.515C1859.74 105.298 1865.62 99.2702 1864.19 94.1945C1861.87 85.9764 1856.81 89.9817 1852.76 93.4258C1830.61 112.258 1811.11 135.478 1795.36 159.866C1787.88 171.441 1780.82 184.117 1778.35 197.847C1777.07 204.939 1777.06 212.338 1779.16 219.281C1780.48 223.644 1784.45 234.164 1789.77 226.992Z" fill="black"/>
<path id="ink 6" fill-rule="evenodd" clip-rule="evenodd" d="M425.011 1231.53C436.108 1230.5 447.268 1230.13 458.392 1229.56C466.624 1229.14 475.886 1229.65 483.443 1225.68C491.048 1221.7 487.741 1215.72 481.419 1214.83C477.784 1214.33 471.65 1216.78 467.755 1216.95C463.536 1217.13 459.295 1217 455.073 1217.02C442.735 1217.06 429.44 1216.97 417.544 1221.07C413.658 1222.41 407.772 1224.48 406.174 1228.92C402.756 1238.42 419.864 1232 425.011 1231.53Z" fill="black"/>
<path id="ink 7" fill-rule="evenodd" clip-rule="evenodd" d="M522.18 362.256C538.295 360.324 553.872 355.494 569.749 352.415C584.845 349.49 587.415 337.589 569.544 338.122C563.542 338.301 505.688 349.277 522.18 362.256Z" fill="black"/>
<path id="ink 8" fill-rule="evenodd" clip-rule="evenodd" d="M1853.85 959.164C1843.02 956.455 1848.62 968.465 1851.97 972.179C1858.17 979.045 1861.55 984.186 1863.39 993.342C1864.47 998.672 1863.46 1010.71 1867.98 1014.78C1872.44 1018.79 1872.75 1016.13 1873.54 1011.18C1875.77 997.216 1871.31 963.54 1853.85 959.164Z" fill="black"/>
<path id="ink 9" fill-rule="evenodd" clip-rule="evenodd" d="M1734.99 199.169C1738.05 195.918 1734.76 181.78 1735.13 177.636C1735.57 172.616 1736.76 168.367 1738.25 163.656C1738.98 161.372 1742.64 153.308 1740.67 150.805C1737.94 147.334 1733.4 153.199 1731.96 155.507C1727.3 163.02 1726.21 175.547 1726.98 184.007C1727.26 187.07 1729.11 205.389 1734.99 199.169Z" fill="black"/>
<path id="ink 10" fill-rule="evenodd" clip-rule="evenodd" d="M1097.49 1391.39C1098 1383.38 1105.71 1377.83 1105.74 1369.31C1105.76 1359.74 1099.33 1355.6 1091.31 1361.82C1086.47 1365.57 1082.71 1374.71 1076.17 1375.9C1063.05 1378.31 1057.91 1354.75 1044.99 1357.47C1033.8 1359.83 1039.68 1379.04 1043.06 1385.53C1046.63 1392.4 1053.13 1397.22 1051.01 1405.67C1048.5 1415.71 1039.89 1421.49 1043.24 1432.95C1049.47 1454.24 1062.98 1434.34 1071.11 1427.65C1076.9 1422.88 1080.4 1423.72 1086.02 1428.4C1093.73 1434.8 1099.62 1439.15 1108.96 1443.47C1117.2 1447.27 1125.15 1449.93 1125.4 1437.16C1125.61 1427.12 1118.02 1417.12 1111.37 1410.31C1105.84 1404.66 1096.93 1400.3 1097.49 1391.39Z" fill="black"/>
<path id="ink 11" fill-rule="evenodd" clip-rule="evenodd" d="M953.112 1359.63C943.471 1349.35 931.295 1375.57 923.504 1378.47C910.876 1383.17 907.968 1357.97 896.342 1358.76C887.293 1359.38 888.008 1372.35 889.978 1378.26C892.099 1384.63 898.445 1389.83 899.508 1396.36C901.143 1406.36 882.226 1426.35 895.427 1436C906.698 1444.25 910.895 1416.39 924.984 1427.76C931.901 1433.34 951.255 1454.1 960.845 1443.77C972.177 1431.56 945.225 1410.7 940.305 1401.41C933.649 1388.83 967.24 1374.69 953.112 1359.63Z" fill="black"/>
<path id="ink 12" fill-rule="evenodd" clip-rule="evenodd" d="M1186.67 1002.5C1183.91 1001.28 1179.44 1003.3 1176.45 1003.17C1173.23 1003.03 1169.89 1001.57 1166.72 1001.03C1159.83 999.855 1147.73 1001.56 1142.84 995.421C1137.86 989.161 1141.65 976.593 1139.52 968.979C1138.36 964.837 1137.02 959.727 1131.44 961.574C1124.97 963.717 1125.13 975.601 1124.35 980.813C1123.22 988.505 1122.3 994.371 1114.57 997.107C1108.84 999.131 1102.82 998.111 1098.2 1002.81C1094.81 1006.26 1092.52 1012.55 1095.17 1017.05C1099.16 1023.81 1107.79 1020.31 1113.78 1022.45C1122.91 1025.71 1120.74 1040.63 1122.61 1049.19C1123.81 1054.7 1126.44 1070.11 1134.34 1069.86C1145.12 1069.52 1140.93 1047.87 1140.34 1041.55C1139.73 1035.14 1138.29 1029.7 1145.45 1027.71C1151.49 1026.02 1159.93 1029.15 1166.18 1029.11C1174.06 1029.06 1183.35 1027.08 1188.11 1020.01C1190.83 1015.97 1192.55 1005.09 1186.67 1002.5Z" fill="black"/>
<path id="ink 13" fill-rule="evenodd" clip-rule="evenodd" d="M1582.67 1268.99C1599.81 1270.47 1589.42 1291.59 1600.79 1299.98C1611.64 1307.99 1613.1 1285.89 1613.1 1279.57C1613.09 1264.29 1631.68 1269.94 1643 1267.41C1652.66 1265.25 1663.21 1255.22 1651.67 1246.67C1643.35 1240.51 1629.54 1243.37 1619.88 1241.74C1606.78 1239.52 1610.67 1230.78 1610.38 1220.7C1610.28 1217 1609.01 1203.83 1604.23 1202.79C1595.49 1200.89 1594.97 1225.43 1594.38 1230.1C1591.89 1249.85 1578.32 1237.81 1567.55 1247.72C1553.46 1260.66 1572.47 1268.11 1582.67 1268.99Z" fill="black"/>
<path id="ink 14" fill-rule="evenodd" clip-rule="evenodd" d="M767.778 900.725C741.009 922.666 710.611 919.521 686.113 895.902C675.752 885.914 669.493 875.848 670.42 861.232C671.251 848.08 675.113 833.546 685.644 824.663C694.513 817.177 711.239 814.491 722.469 813.443C738.208 811.98 752.29 820.548 763.177 831.257C772.658 840.581 783.741 852.461 785.202 866.304C786.74 880.869 778.442 891.98 767.778 900.725ZM771.849 813.414C747.837 790.29 705.257 792.611 680.467 813.699C652.641 837.369 647.883 881.835 674.625 907.767C702.806 935.096 740.007 932.147 769.838 909.477C785.84 897.32 794.522 881.716 796.751 861.698C798.854 842.779 784.98 826.057 771.849 813.414Z" fill="black"/>
<path id="ink 15" fill-rule="evenodd" clip-rule="evenodd" d="M1236.15 415.387C1233.45 424.144 1235.32 433.473 1235.8 442.394C1228.19 437.632 1223.45 429.14 1215.28 425.194C1211.36 436.023 1230.89 466.996 1243.18 456.843C1254.43 447.553 1246.13 421.627 1236.15 415.387Z" fill="black"/>
<path id="ink 16" fill-rule="evenodd" clip-rule="evenodd" d="M1276.09 468.786C1270.03 471.044 1264.4 470.418 1258.42 471.575C1254.48 472.338 1253.97 470.097 1253.46 474.611C1252.37 484.244 1267.91 487.971 1274.91 487.835C1283.46 487.669 1292.82 481.923 1292 472.57C1291.14 462.825 1282.68 466.332 1276.09 468.786Z" fill="black"/>
<path id="ink 17" fill-rule="evenodd" clip-rule="evenodd" d="M1281.06 428.297C1278.31 425.8 1271.97 416.372 1267.32 417.985C1263.76 419.222 1266.28 423.479 1267.32 425.61C1271.24 433.599 1278.92 440.397 1285.05 446.806C1280.51 448.42 1271.76 449.458 1274.07 456.452C1276.19 462.876 1285.82 461.888 1290.44 459.183C1306.24 449.917 1288.96 435.477 1281.06 428.297Z" fill="black"/>
<path id="ink 18" fill-rule="evenodd" clip-rule="evenodd" d="M1297.01 413.131C1298.1 417.543 1298.68 421.707 1296.29 425.844L1283.12 402.232C1272.54 406.579 1291.11 440.597 1301.93 436.832C1309.41 434.229 1305.81 418.239 1304.63 413.208C1304 410.516 1302.5 401.952 1298.76 401.082C1291.42 399.373 1296.21 409.878 1297.01 413.131Z" fill="black"/>
<path id="ink 19" fill-rule="evenodd" clip-rule="evenodd" d="M753.901 889.379C747.795 884.878 737.676 895.419 731.221 895.458C718.173 895.528 725.278 880.224 717.112 875.263C712.855 872.674 695.027 875.285 697.843 864.572C699.536 858.129 706.16 862.78 709.79 858.843C714.345 853.91 707.853 849.973 703.813 847.947C705.585 845.582 715.801 844.544 718.368 846.179C722.797 849.007 722.541 857.489 726.606 861.855C731.88 855.122 729.018 846.662 734.636 840.617C736.817 838.267 743.197 836.502 740.717 832.312C739.278 829.877 732.977 830.682 730.82 828.747C728.939 827.059 729.033 821.616 725.995 821.164C721.032 820.425 721.153 828.008 719.663 830.199C715.178 836.78 695.474 834.51 703.641 847.86C698.2 845.145 683.357 842.998 686.238 852.477C686.975 854.902 689.781 856.385 690.477 859.148C691.081 861.541 689.752 864.954 689.627 867.357C689.39 871.914 689.025 877.241 692.397 880.907C697.031 885.945 703.223 882.279 708.194 884.472C714.968 887.454 712.526 893.659 716.098 899.085C720.776 906.183 727.968 904.002 734.59 901.855C742.487 899.293 743.736 899.061 749.512 905.64C752.155 902.225 759.392 893.429 753.901 889.379Z" fill="black"/>
<path id="ink 20" fill-rule="evenodd" clip-rule="evenodd" d="M764.52 861.664C758.149 860.486 760.658 841.499 752.906 849.751C749.998 852.84 752.976 858.875 749.732 862.186C747.554 864.412 744.791 863.099 742.613 864.56C740.652 865.869 740.157 868.38 739.002 870.296C743.101 872.141 746.269 872.38 750.645 871.575C750.645 874.872 748.455 884.576 754.079 883.868C759.31 883.206 757.832 873.466 760.496 870.44C763.198 867.361 774.095 868.789 775.109 864.463C776.363 859.107 767.304 862.179 764.52 861.664Z" fill="black"/>
</g>
</g>
</g>
</svg>
