<svg width="1452" height="1559" viewBox="0 0 1452 1559" fill="none" xmlns="http://www.w3.org/2000/svg">
<path id="Vector" d="M435.2 430.471C436.012 249.338 267.191 69.6885 348.011 -92.4163C428.855 -254.571 637.29 -326.915 818.162 -337.658C983.985 -347.507 1124.77 -235.444 1265.32 -146.901C1378.67 -75.4983 1478.37 9.6323 1549.56 123.105C1619.58 234.706 1634.98 362.674 1665.46 490.849C1710.55 680.482 1860.05 878.516 1770.36 1051.58C1682.1 1221.88 1447.32 1254.5 1257.06 1278.84C1085.59 1300.78 921.161 1245.17 760.738 1180.75C603.374 1117.57 411.006 1067.6 343.509 912.033C276.837 758.37 434.45 597.973 435.2 430.471Z" fill="#D1B294"/>
</svg>
