<svg width="52" height="42" viewBox="0 0 52 42" fill="none" xmlns="http://www.w3.org/2000/svg">
<path id="Vector" d="M46.6549 10.4671C46.688 10.9265 46.688 11.386 46.688 11.8453C46.688 25.8562 35.9646 42 16.3655 42C10.3274 42 4.71831 40.2609 0 37.2422C0.857902 37.3406 1.68269 37.3734 2.5736 37.3734C7.55577 37.3734 12.1421 35.7001 15.8046 32.8454C11.1193 32.7469 7.19289 29.6953 5.84007 25.4953C6.50003 25.5937 7.15988 25.6593 7.85284 25.6593C8.80967 25.6593 9.76659 25.528 10.6574 25.2985C5.77416 24.314 2.11159 20.0484 2.11159 14.8969V14.7657C3.53033 15.5532 5.18022 16.0453 6.92882 16.1109C4.05825 14.2077 2.17761 10.9593 2.17761 7.2843C2.17761 5.31559 2.70543 3.5109 3.62935 1.93589C8.87558 8.36713 16.7614 12.5671 25.604 13.0265C25.4391 12.239 25.34 11.4188 25.34 10.5985C25.34 4.75776 30.0914 0 35.9974 0C39.066 0 41.8375 1.27968 43.7843 3.34687C46.1928 2.88752 48.5025 2.00154 50.5483 0.787506C49.7563 3.2485 48.0736 5.31569 45.863 6.6281C48.0077 6.39852 50.0864 5.80777 52 4.98754C50.5485 7.08745 48.7336 8.95769 46.6549 10.4671V10.4671Z" fill="#1A1A1A"/>
</svg>
