<svg width="892" height="421" viewBox="0 0 892 421" fill="none" xmlns="http://www.w3.org/2000/svg">
<g id="Group 2">
<path id="Vector" d="M251.189 3.91312C265.667 -2.21852 283.816 -1.54427 295.661 8.79496C278.821 11.755 263.571 20.5762 252.609 33.6978C248.399 38.7736 244.246 44.8574 237.773 46.1163C233.746 46.8997 229.538 45.5515 226.1 43.3127C222.661 41.0737 219.862 38.0007 217.104 34.9628L216.144 34.6064C225.402 21.8977 236.711 10.0448 251.189 3.91312Z" fill="#F0F0F0"/>
<path id="Vector_2" d="M295.48 9.07049C282.736 6.43002 269.485 7.87201 257.608 13.1916C255.03 14.2914 252.643 15.7906 250.532 17.6339C248.535 19.496 247.072 21.8591 246.296 24.4776C245.524 26.9046 245.015 29.4767 243.666 31.6737C242.959 32.7881 242.025 33.7404 240.924 34.4682C239.823 35.196 238.58 35.6828 237.278 35.8968C234.047 36.5144 230.787 35.9341 227.618 35.2559C224.1 34.5029 220.458 33.665 216.882 34.5481C216.448 34.6551 216.308 33.9766 216.74 33.8697C222.962 32.3332 228.979 35.7551 235.205 35.4463C238.11 35.3022 240.989 34.2818 242.729 31.8358C244.25 29.6968 244.777 27.045 245.538 24.5808C246.257 22.0152 247.593 19.6648 249.43 17.7348C251.44 15.7899 253.766 14.2013 256.309 13.0368C261.992 10.324 268.066 8.5215 274.308 7.69542C281.428 6.71312 288.663 6.95593 295.7 8.41335C296.136 8.50373 295.913 9.16026 295.48 9.07047L295.48 9.07049Z" fill="white"/>
<path id="Vector_3" d="M261.331 11.2536C260.709 9.1397 260.859 6.87354 261.754 4.85981C262.648 2.84608 264.229 1.21591 266.215 0.260442C266.618 0.0684921 266.935 0.684835 266.532 0.877035C264.681 1.76335 263.208 3.28199 262.379 5.15888C261.55 7.03577 261.419 9.14725 262.01 11.1122C262.138 11.5394 261.458 11.6783 261.331 11.2536V11.2536Z" fill="white"/>
<path id="Vector_4" d="M246.526 23.1955C250.461 25.3873 255.078 26.0154 259.455 24.9544C259.889 24.849 260.03 25.5275 259.597 25.6328C255.039 26.7283 250.236 26.065 246.146 23.7751C245.756 23.5566 246.138 22.9781 246.526 23.1955Z" fill="white"/>
<path id="Vector_5" d="M281.181 7.59831C281.251 8.46637 281.536 9.30341 282.01 10.0342C282.484 10.7651 283.131 11.3668 283.895 11.7854C284.287 11.9989 283.905 12.5772 283.515 12.3651C282.674 11.8986 281.959 11.2332 281.434 10.4269C280.909 9.62061 280.589 8.698 280.503 7.73967C280.487 7.65001 280.506 7.55774 280.556 7.48161C280.606 7.40548 280.683 7.35119 280.771 7.32979C280.861 7.31152 280.955 7.32948 281.031 7.37976C281.108 7.43004 281.162 7.50858 281.181 7.59831V7.59831Z" fill="white"/>
<path id="Vector_6" d="M294.244 62.0108C293.996 61.8845 293.747 61.7581 293.493 61.6345C290.14 59.9534 286.656 58.5474 283.076 57.4305C282.8 57.3397 282.52 57.2519 282.242 57.1693C273.588 54.5703 264.525 53.6007 255.517 54.3098C251.932 54.5953 248.374 55.1531 244.874 55.9783C240.041 57.1183 234.891 58.7389 230.104 58.2305C229.604 58.1831 229.107 58.1047 228.617 57.9959L215.784 35.8055C215.78 35.7404 215.771 35.678 215.767 35.6127L215.214 34.7502C215.391 34.695 215.577 34.6416 215.754 34.5864C215.857 34.554 215.963 34.5265 216.066 34.4941C216.135 34.4741 216.205 34.4542 216.266 34.4322C216.289 34.4254 216.313 34.4189 216.331 34.415C216.392 34.393 216.452 34.379 216.508 34.3598C217.543 34.0585 218.582 33.7639 219.625 33.476C219.63 33.4731 219.63 33.4731 219.638 33.4751C227.564 31.2056 235.731 29.8843 243.968 29.5389C244.213 29.5319 244.464 29.5217 244.716 29.5249C248.401 29.4395 252.087 29.6555 255.737 30.1707C257.735 30.4592 259.717 30.8487 261.675 31.3376C266.733 32.6106 271.559 34.6713 275.976 37.4439C284.781 42.9726 291.72 51.2556 294.072 61.2458C294.132 61.5014 294.189 61.7523 294.244 62.0108Z" fill="#F0F0F0"/>
<path id="Vector_7" d="M293.934 62.1238C285.349 52.3431 273.9 45.5162 261.214 42.6127C258.494 41.9391 255.685 41.6985 252.89 41.8997C250.174 42.1837 247.583 43.1898 245.387 44.8136C243.31 46.2865 241.355 48.0337 238.955 48.9759C237.719 49.4399 236.4 49.6375 235.083 49.5558C233.765 49.4741 232.48 49.1148 231.312 48.5015C228.36 47.0493 226.106 44.6231 223.985 42.1739C221.629 39.4545 219.225 36.5925 215.838 35.1447C215.428 34.9692 215.724 34.3427 216.134 34.5179C222.027 37.0369 224.771 43.3922 229.928 46.8938C232.334 48.5277 235.247 49.4464 238.109 48.5408C240.611 47.7489 242.629 45.9489 244.72 44.4393C246.839 42.8239 249.321 41.7518 251.95 41.3168C254.725 40.974 257.539 41.106 260.27 41.7071C266.441 42.9625 272.376 45.1802 277.857 48.2791C284.133 51.7812 289.764 56.331 294.506 61.7318C294.799 62.0662 294.225 62.456 293.934 62.1238H293.934Z" fill="white"/>
<path id="Vector_8" d="M265.354 43.3071C266.13 41.2448 267.614 39.5255 269.54 38.4563C271.467 37.3871 273.711 37.0375 275.872 37.4701C276.309 37.5591 276.191 38.2422 275.753 38.1531C273.742 37.7466 271.652 38.0724 269.86 39.0717C268.068 40.071 266.692 41.6781 265.981 43.6027C265.825 44.0208 265.2 43.7229 265.354 43.3072V43.3071Z" fill="white"/>
<path id="Vector_9" d="M246.342 43.928C248.165 48.0473 251.473 51.3284 255.607 53.117C256.017 53.2939 255.721 53.9204 255.312 53.7438C251.013 51.8745 247.577 48.453 245.69 44.1622C245.511 43.7531 246.164 43.5212 246.342 43.9281V43.928Z" fill="white"/>
<path id="Vector_10" d="M283.404 52.3396C282.937 53.075 282.66 53.9147 282.599 54.7834C282.537 55.6521 282.692 56.5226 283.049 57.3166C283.234 57.7233 282.581 57.9548 282.397 57.5508C282.006 56.6717 281.836 55.7101 281.902 54.7502C281.969 53.7903 282.269 52.8611 282.777 52.044C282.818 51.963 282.889 51.9007 282.975 51.87C283.06 51.8392 283.154 51.8422 283.238 51.8784C283.321 51.918 283.385 51.9886 283.416 52.0749C283.447 52.1613 283.442 52.2564 283.404 52.3396V52.3396Z" fill="white"/>
<path id="Vector_11" d="M798.45 409.096H787.089L781.684 365.272L798.452 365.273L798.45 409.096Z" fill="#A0616A"/>
<path id="Vector_12" d="M801.348 420.11L764.713 420.108V419.645C764.713 415.863 766.216 412.236 768.89 409.562C771.564 406.888 775.191 405.386 778.972 405.386H778.973L801.349 405.387L801.348 420.11Z" fill="#2F2E41"/>
<path id="Vector_13" d="M886.916 404.178L875.682 405.876L863.787 363.353L878.514 360.847L886.916 404.178Z" fill="#A0616A"/>
<path id="Vector_14" d="M891.428 414.634L855.204 420.11L855.135 419.651C854.57 415.912 855.513 412.102 857.758 409.058C860.002 406.014 863.363 403.987 867.102 403.421L867.103 403.421L889.227 400.077L891.428 414.634Z" fill="#2F2E41"/>
<path id="Vector_15" d="M562.84 420.11H223.349V80.6185H562.84V420.11Z" fill="white"/>
<path id="Vector_16" d="M562.84 420.11H223.349V80.6185H562.84V420.11ZM228.365 415.094H557.824V85.6345H228.365V415.094Z" fill="#F0F0F0"/>
<path id="Vector_17" d="M511.073 226.561H293.347V234.247H511.073V226.561Z" fill="#62F188"/>
<path id="Vector_18" d="M511.073 246.545H293.347V254.23H511.073V246.545Z" fill="#62F188"/>
<path id="Vector_19" d="M511.073 266.528H293.347V274.214H511.073V266.528Z" fill="#62F188"/>
<path id="Vector_20" d="M280.131 236.546C282.901 236.546 285.147 234.301 285.147 231.53C285.147 228.76 282.901 226.514 280.131 226.514C277.361 226.514 275.115 228.76 275.115 231.53C275.115 234.301 277.361 236.546 280.131 236.546Z" fill="#62F188"/>
<path id="Vector_21" d="M511.073 140.454H293.347V148.14H511.073V140.454Z" fill="#F0F0F0"/>
<path id="Vector_22" d="M511.073 160.438H293.347V168.123H511.073V160.438Z" fill="#F0F0F0"/>
<path id="Vector_23" d="M511.073 180.421H293.347V188.107H511.073V180.421Z" fill="#F0F0F0"/>
<path id="Vector_24" d="M280.131 149.603C282.901 149.603 285.147 147.357 285.147 144.587C285.147 141.817 282.901 139.571 280.131 139.571C277.361 139.571 275.115 141.817 275.115 144.587C275.115 147.357 277.361 149.603 280.131 149.603Z" fill="#F0F0F0"/>
<path id="Vector_25" d="M511.073 313.505H293.347V321.19H511.073V313.505Z" fill="#F0F0F0"/>
<path id="Vector_26" d="M511.073 333.488H293.347V341.174H511.073V333.488Z" fill="#F0F0F0"/>
<path id="Vector_27" d="M511.073 353.471H293.347V361.157H511.073V353.471Z" fill="#F0F0F0"/>
<path id="Vector_28" d="M280.131 322.654C282.901 322.654 285.147 320.408 285.147 317.638C285.147 314.867 282.901 312.622 280.131 312.622C277.361 312.622 275.115 314.867 275.115 317.638C275.115 320.408 277.361 322.654 280.131 322.654Z" fill="#E5E5E5"/>
<path id="Path 138" d="M745.078 286H547.544C544.585 285.993 542.186 281.087 542.183 275.03V128.076C542.183 122.02 544.585 117.115 547.544 117.105H745.078C748.037 117.113 750.435 122.019 750.439 128.076V275.029C750.435 281.084 748.033 285.993 745.078 286Z" fill="white"/>
<path id="Path 138_2" d="M745.078 286H547.544C544.585 285.993 542.186 281.087 542.183 275.03V128.076C542.183 122.02 544.585 117.115 547.544 117.105H745.078C748.037 117.113 750.435 122.019 750.439 128.076V275.029C750.435 281.084 748.033 285.993 745.078 286ZM547.544 121.493C545.768 121.493 544.329 124.442 544.327 128.076V275.029C544.327 278.662 545.768 281.607 547.544 281.611H745.078C746.854 281.611 748.293 278.663 748.295 275.029V128.076C748.295 124.442 746.854 121.497 745.078 121.493L547.544 121.493Z" fill="#E6E6E6"/>
<path id="Vector_29" d="M673.056 236.928H619.885V240.924H673.056V236.928Z" fill="#62F188"/>
<path id="Vector_30" d="M679.686 247.313H612.77V251.309H679.686V247.313Z" fill="#62F188"/>
<path id="Vector_31" d="M681.029 186.514C681.027 192.521 679.467 198.424 676.501 203.648C673.536 208.871 669.267 213.236 664.11 216.317C658.954 219.397 653.086 221.088 647.081 221.223C641.076 221.359 635.139 219.935 629.849 217.09L629.842 217.083C624.438 214.172 619.903 209.88 616.698 204.646C613.493 199.411 611.733 193.42 611.598 187.284C611.462 181.147 612.955 175.085 615.926 169.714C618.896 164.342 623.238 159.855 628.507 156.708C633.777 153.561 639.787 151.867 645.924 151.799C652.062 151.731 658.108 153.291 663.446 156.32C668.784 159.35 673.223 163.74 676.312 169.044C679.401 174.348 681.029 180.377 681.029 186.514V186.514Z" fill="#CACACA"/>
<path id="Vector_32" d="M646.488 184.829C651.7 184.829 655.926 180.604 655.926 175.391C655.926 170.179 651.7 165.953 646.488 165.953C641.276 165.953 637.05 170.179 637.05 175.391C637.05 180.604 641.276 184.829 646.488 184.829Z" fill="white"/>
<path id="Vector_33" d="M662.603 204.33C652.052 208.033 640.548 207.989 630.026 204.204L630.019 204.199L637.05 190.32H655.926L662.603 204.33Z" fill="white"/>
<path id="Vector_34" d="M507.144 338.547H655.36V273.559H653.079V336.266H507.144V338.547Z" fill="#3F3D56"/>
<path id="Vector_35" d="M654.22 296.63C661.146 296.63 666.761 291.015 666.761 284.089C666.761 277.163 661.146 271.548 654.22 271.548C647.293 271.548 641.678 277.163 641.678 284.089C641.678 291.015 647.293 296.63 654.22 296.63Z" fill="#3F3D56"/>
<path id="Path 138_3" d="M233.078 196H35.5444C32.5851 195.993 30.1864 191.087 30.1827 185.03V38.0757C30.1827 32.0199 32.5851 27.1154 35.5444 27.1054H233.078C236.037 27.1129 238.436 32.0186 238.439 38.0757V185.029C238.436 191.085 236.033 195.993 233.078 196Z" fill="white"/>
<path id="Path 138_4" d="M233.078 196H35.5444C32.5851 195.993 30.1864 191.087 30.1827 185.03V38.0757C30.1827 32.0199 32.5851 27.1154 35.5444 27.1054H233.078C236.037 27.1129 238.436 32.0186 238.439 38.0757V185.029C238.436 191.085 236.033 195.993 233.078 196ZM35.5444 31.4932C33.7681 31.4932 32.3294 34.4424 32.3268 38.0756V185.029C32.3268 188.662 33.768 191.607 35.5444 191.611H233.078C234.854 191.611 236.293 188.663 236.295 185.029V38.0757C236.295 34.4425 234.854 31.4971 233.078 31.4933L35.5444 31.4932Z" fill="#E6E6E6"/>
<path id="Vector_36" d="M178.164 73.0147C169.374 63.6823 157.273 58.1708 144.463 57.6649V106.715L178.164 73.0147Z" fill="#3F3D56"/>
<path id="Vector_37" d="M178.164 79.1222L144.463 112.823H191.561C191.577 100.288 186.782 88.2246 178.164 79.1222V79.1222Z" fill="#E4E4E4"/>
<path id="Vector_38" d="M191.611 116.348C191.613 119.405 191.33 122.456 190.766 125.46C190.722 125.698 190.676 125.934 190.627 126.169C189.564 131.411 187.644 136.441 184.946 141.059C184.802 141.306 184.654 141.554 184.506 141.797V141.799C181.846 146.175 178.52 150.11 174.648 153.461C174.456 153.629 174.264 153.794 174.07 153.957C165.748 160.958 155.329 164.984 144.462 165.398V116.348H191.611Z" fill="#F0F0F0"/>
<path id="Vector_39" d="M139.698 165.441C140.35 165.441 140.998 165.424 141.644 165.399V116.346L105.971 152.019C115.076 160.653 127.151 165.458 139.698 165.441V165.441Z" fill="#CACACA"/>
<path id="Vector_40" d="M139.765 63.7286C133.318 63.7286 126.934 64.9984 120.977 67.4657C115.021 69.9329 109.609 73.5491 105.05 78.108C100.491 82.6668 96.8748 88.0789 94.4076 94.0353C91.9404 99.9917 90.6705 106.376 90.6705 112.823H141.762V63.7723C141.099 63.7458 140.434 63.7286 139.765 63.7286Z" fill="#62F188"/>
<path id="Vector_41" d="M128.052 116.348L117.731 126.669L117.393 127.007L117.386 127.014L108.385 136.013L108.042 136.355L98.3178 146.08L97.9754 146.422V146.425L92.3786 152.019C87.5189 147.436 83.6485 141.907 81.0056 135.773C78.3627 129.638 77.0033 123.027 77.0111 116.348H128.052Z" fill="#62F188"/>
<path id="Vector_42" d="M293.913 250.547H145.698V185.559H147.978V248.266H293.913V250.547Z" fill="#3F3D56"/>
<path id="Vector_43" d="M146.838 208.63C153.764 208.63 159.379 203.015 159.379 196.089C159.379 189.163 153.764 183.548 146.838 183.548C139.911 183.548 134.296 189.163 134.296 196.089C134.296 203.015 139.911 208.63 146.838 208.63Z" fill="#3F3D56"/>
<path id="Vector_44" d="M851.885 191.917L839.27 195.222L840.109 215.675L840.213 252.913C838.97 253.772 838.018 254.989 837.481 256.402C836.945 257.814 836.85 259.357 837.209 260.825C837.569 262.292 838.365 263.617 839.493 264.622C840.621 265.627 842.028 266.266 843.528 266.455C845.027 266.643 846.548 266.372 847.89 265.677C849.232 264.982 850.331 263.896 851.043 262.563C851.754 261.229 852.044 259.712 851.873 258.21C851.703 256.708 851.081 255.294 850.09 254.154L853.966 216.779L851.885 191.917Z" fill="#A0616A"/>
<path id="Vector_45" d="M855.415 204.215L836.976 198.006L836.933 197.728C836.905 197.553 834.2 180.089 834.234 168.107C834.197 166.773 834.451 165.446 834.98 164.22C835.508 162.994 836.298 161.898 837.293 161.008C838.679 159.745 840.403 158.913 842.254 158.615C844.105 158.317 846.003 158.567 847.715 159.332C849.543 160.086 851.116 161.351 852.245 162.975C853.374 164.599 854.011 166.514 854.081 168.49L855.415 204.215Z" fill="#E4E4E4"/>
<path id="Vector_46" d="M821.111 202.502L792.908 195.201L779.871 239.108L779.408 402.677L800.975 402.542L809.99 270.153L867.448 392.483L890.616 389.703L840.109 258.569C840.109 258.569 842.889 235.401 834.085 223.816L835.939 211.769L821.111 202.502Z" fill="#2F2E41"/>
<path id="Vector_47" d="M836.774 215.013L834.639 214.979L791.298 197.655L812.033 151.474L821.877 153.263L820.085 146.095L841.837 140.778L845.622 155.916L851.206 160.992C852.613 162.272 853.617 163.932 854.098 165.772C854.579 167.612 854.515 169.551 853.914 171.356L841.05 209.949C841.156 210.571 841.124 211.209 840.958 211.818C840.792 212.426 840.495 212.992 840.088 213.474C839.68 213.956 839.173 214.343 838.601 214.609C838.028 214.875 837.405 215.013 836.774 215.013L836.774 215.013Z" fill="#E4E4E4"/>
<path id="Vector_48" d="M804.179 180.432L792.777 174.103L779.25 189.467L753.592 216.454C752.099 216.217 750.57 216.438 749.206 217.088C747.842 217.739 746.707 218.788 745.953 220.097C745.198 221.406 744.859 222.914 744.979 224.42C745.1 225.927 745.675 227.361 746.629 228.533C747.582 229.706 748.869 230.561 750.32 230.986C751.77 231.411 753.315 231.385 754.75 230.913C756.186 230.441 757.444 229.544 758.359 228.341C759.273 227.138 759.801 225.686 759.873 224.176L788.502 199.841L804.179 180.432Z" fill="#A0616A"/>
<path id="Vector_49" d="M798.232 191.76L789.195 174.53L789.356 174.299C789.457 174.155 799.571 159.662 807.874 151.025C808.77 150.034 809.871 149.252 811.1 148.731C812.329 148.21 813.657 147.963 814.992 148.008C816.866 148.052 818.687 148.643 820.231 149.707C821.774 150.771 822.974 152.262 823.683 153.998C824.483 155.807 824.746 157.807 824.44 159.761C824.134 161.715 823.271 163.539 821.956 165.016L798.232 191.76Z" fill="#E4E4E4"/>
<path id="Vector_50" d="M825.743 137.961C835.288 137.961 843.026 130.223 843.026 120.678C843.026 111.133 835.288 103.396 825.743 103.396C816.198 103.396 808.461 111.133 808.461 120.678C808.461 130.223 816.198 137.961 825.743 137.961Z" fill="#A0616A"/>
<path id="Vector_51" d="M804.946 110.544C807.853 105.341 808.965 103.168 812.712 100.004C816.025 97.206 820.101 96.3842 823.389 99.0355C827.278 97.3551 831.606 96.9741 835.729 97.9491C839.852 98.924 843.55 101.203 846.275 104.447C849 107.692 850.605 111.728 850.853 115.958C851.101 120.187 849.978 124.384 847.65 127.924C845.323 131.464 841.916 134.159 837.935 135.609C833.954 137.059 829.612 137.186 825.553 135.971C821.494 134.756 817.936 132.265 815.406 128.866C812.876 125.468 811.509 121.344 811.51 117.108C811.513 116.364 811.557 115.62 811.644 114.882C808.786 114.48 807.804 110.946 804.946 110.544Z" fill="#2F2E41"/>
<path id="Vector_52" d="M40.5919 261.632C41.4054 261.143 42.1019 260.481 42.6321 259.694C43.1624 258.907 43.5136 258.013 43.661 257.075C43.8084 256.138 43.7485 255.179 43.4853 254.267C43.2222 253.355 42.7623 252.512 42.1381 251.797L50.5752 167.131L36.4869 168.066L32.584 251.436C31.4524 252.564 30.7739 254.069 30.6772 255.664C30.5805 257.259 31.0723 258.834 32.0593 260.091C33.0464 261.348 34.4602 262.199 36.0328 262.483C37.6054 262.767 39.2276 262.464 40.5919 261.632V261.632Z" fill="#FFB8B8"/>
<path id="Vector_53" d="M30.7794 163.995L34.473 192.068L33.9603 209.273L49.4552 210.692L52.5607 196.382L54.2716 158.498C54.4006 155.641 53.4418 152.841 51.5883 150.662C49.7349 148.484 47.1245 147.089 44.2834 146.758V146.758C41.3358 146.416 38.3716 147.246 36.0305 149.069C33.6895 150.893 32.1593 153.564 31.7701 156.506L30.7794 163.995Z" fill="#2F2E41"/>
<path id="Vector_54" d="M90.119 410.998H99.518L103.989 374.744H90.117L90.119 410.998Z" fill="#FFB7B7"/>
<path id="Vector_55" d="M87.7212 407.93L106.232 407.929H106.232C109.361 407.929 112.361 409.172 114.573 411.384C116.786 413.596 118.029 416.597 118.029 419.725V420.108L87.7218 420.11L87.7212 407.93Z" fill="#2F2E41"/>
<path id="Vector_56" d="M12.508 410.998H21.907L26.378 374.744H12.506L12.508 410.998Z" fill="#FFB7B7"/>
<path id="Vector_57" d="M10.1099 407.93L28.6204 407.929H28.6211C31.7496 407.929 34.7499 409.172 36.9621 411.384C39.1743 413.596 40.4172 416.597 40.4174 419.725V420.108L10.1104 420.11L10.1099 407.93Z" fill="#2F2E41"/>
<path id="Vector_58" d="M49.0576 133.414C60.3122 133.414 69.436 124.29 69.436 113.036C69.436 101.781 60.3122 92.6573 49.0576 92.6573C37.8029 92.6573 28.6791 101.781 28.6791 113.036C28.6791 124.29 37.8029 133.414 49.0576 133.414Z" fill="#FFB8B8"/>
<path id="Vector_59" d="M51.6908 141.687L37.5486 143.304C34.1096 148.181 31.8798 153.806 31.0431 159.714C30.2064 165.623 30.7869 171.646 32.7365 177.286L43.4075 208.156C43.4075 208.156 28.5944 237.852 28.5944 265.423C28.5944 292.995 0.383667 391.411 0.383667 391.411L40.093 395.553L57.4195 290.712L81.2963 395.131L108.554 390.694L93.5411 253.789L83.6207 208.728L83.1981 186.753C83.1981 186.753 87.4162 170.264 76.8591 159.707L63.9698 141.746L51.6908 141.687Z" fill="#2F2E41"/>
<path id="Vector_60" d="M151.388 214.281C151.347 213.241 151.078 212.224 150.601 211.3C150.124 210.376 149.45 209.568 148.627 208.932C147.804 208.297 146.851 207.849 145.836 207.622C144.822 207.394 143.769 207.392 142.753 207.615L65.8511 154.918L59.3295 168.947L137.375 216.605C137.863 218.286 138.951 219.73 140.433 220.663C141.914 221.596 143.687 221.953 145.414 221.667C147.141 221.38 148.704 220.47 149.805 219.109C150.906 217.748 151.469 216.03 151.388 214.281H151.388Z" fill="#FFB8B8"/>
<path id="Vector_61" d="M52.4123 172.286L81.3293 183.522L97.5898 193.076L107.114 178.936L95.0005 168.416L59.5033 146.82C56.826 145.191 53.6307 144.638 50.5615 145.271C47.4923 145.905 44.7772 147.678 42.9635 150.234V150.234C41.0818 152.885 40.3181 156.17 40.8372 159.38C41.3563 162.59 43.1166 165.466 45.7381 167.39L52.4123 172.286Z" fill="#2F2E41"/>
<path id="Vector_62" d="M72.8127 105.758H42.8673V92.7048C49.44 90.0936 55.8717 87.8729 59.7596 92.7048C63.2215 92.7048 66.5416 94.0801 68.9895 96.528C71.4374 98.9759 72.8127 102.296 72.8127 105.758V105.758Z" fill="#2F2E41"/>
<path id="Vector_63" d="M48.2095 91.4013C30.3077 91.4805 25.2968 113.841 25.2968 126.5C25.2968 133.56 28.4896 136.085 33.5067 136.939L35.2786 127.489L39.4286 137.346C40.8379 137.353 42.3184 137.326 43.8533 137.297L45.2604 134.4L48.3981 137.245C60.9649 137.264 79.2269 136.142 71.1219 126.5C60.264 113.583 63.8132 91.3323 48.2095 91.4013Z" fill="#2F2E41"/>
<path id="Vector_64" d="M868.778 161.672C867.986 158.675 867.868 155.541 868.431 152.493C869.266 146.608 871.145 140.93 872.863 135.239C874.581 129.548 876.156 123.745 876.355 117.804C876.553 111.863 875.265 105.703 871.723 100.93C868.18 96.1563 862.14 93.0282 856.264 93.9258C850.649 94.7834 845.746 99.8479 845.717 105.467C844.712 107.286 846.01 109.769 847.859 110.848C849.798 111.979 852.136 112.13 854.287 112.773C856.398 113.456 858.346 114.568 860.008 116.038C861.67 117.509 863.01 119.307 863.944 121.32C865.789 125.384 866.28 129.933 865.344 134.297C864.497 138.526 862.549 142.439 861.088 146.497C859.627 150.555 858.651 155.01 859.824 159.16C860.799 162.225 862.848 164.835 865.594 166.508C868.341 168.182 871.599 168.806 874.77 168.267C873.323 167.716 872.026 166.832 870.985 165.686C869.944 164.54 869.188 163.165 868.778 161.672V161.672Z" fill="#2F2E41"/>
<path id="Vector_65" d="M715.964 372.003C714.024 356.4 704.354 341.027 689.474 335.949C695.342 352.009 695.341 369.627 689.47 385.686C687.183 391.871 683.996 398.512 686.147 404.745C687.485 408.624 690.759 411.591 694.418 413.447C698.078 415.302 702.139 416.187 706.15 417.053L706.939 417.706C713.306 403.33 717.904 387.606 715.964 372.003Z" fill="#F0F0F0"/>
<path id="Vector_66" d="M689.326 336.244C697.991 345.954 703.377 358.147 704.719 371.092C705.057 373.874 704.954 376.691 704.415 379.441C703.803 382.102 702.49 384.552 700.612 386.534C698.897 388.418 696.926 390.146 695.699 392.413C695.088 393.583 694.732 394.869 694.653 396.187C694.574 397.504 694.775 398.823 695.242 400.058C696.325 403.164 698.459 405.696 700.632 408.099C703.046 410.768 705.594 413.501 706.62 417.039C706.744 417.467 707.402 417.249 707.278 416.821C705.494 410.666 699.519 407.17 696.669 401.627C695.34 399.04 694.781 396.037 696.028 393.306C697.118 390.918 699.15 389.134 700.902 387.242C702.763 385.335 704.128 383.002 704.879 380.445C705.557 377.732 705.768 374.923 705.503 372.139C705.006 365.861 703.526 359.701 701.115 353.883C698.401 347.229 694.569 341.087 689.784 335.725C689.488 335.393 689.031 335.915 689.326 336.244H689.326Z" fill="white"/>
<path id="Vector_67" d="M704.532 366.898C706.673 366.379 708.56 365.114 709.855 363.332C711.151 361.549 711.77 359.364 711.603 357.167C711.568 356.723 710.876 356.757 710.911 357.202C711.07 359.247 710.493 361.283 709.283 362.94C708.074 364.598 706.312 365.768 704.315 366.24C703.881 366.344 704.101 367.001 704.532 366.898V366.898Z" fill="white"/>
<path id="Vector_68" d="M701.607 385.693C697.739 383.384 694.884 379.702 693.611 375.382C693.485 374.953 692.827 375.171 692.953 375.599C694.286 380.093 697.265 383.918 701.295 386.313C701.679 386.54 701.989 385.92 701.607 385.694L701.607 385.693Z" fill="white"/>
<path id="Vector_69" d="M697.759 347.885C696.972 348.259 696.105 348.431 695.235 348.387C694.365 348.343 693.52 348.084 692.775 347.632C692.394 347.399 692.085 348.02 692.464 348.251C693.289 348.746 694.223 349.032 695.183 349.082C696.144 349.133 697.103 348.948 697.976 348.543C698.061 348.512 698.132 348.449 698.173 348.368C698.213 348.287 698.222 348.193 698.196 348.105C698.167 348.018 698.105 347.947 698.023 347.905C697.941 347.864 697.846 347.857 697.759 347.885V347.885Z" fill="white"/>
<path id="Vector_70" d="M644.116 363.818C644.35 363.97 644.584 364.122 644.818 364.28C647.952 366.341 650.913 368.653 653.673 371.193C653.889 371.386 654.106 371.585 654.316 371.784C660.899 377.975 666.275 385.334 670.171 393.487C671.719 396.733 673.017 400.092 674.055 403.535C675.488 408.29 676.663 413.56 679.5 417.449C679.791 417.858 680.108 418.249 680.447 418.619H706.081C706.14 418.589 706.198 418.566 706.257 418.537L707.28 418.583C707.239 418.402 707.193 418.215 707.151 418.034C707.128 417.928 707.099 417.823 707.075 417.718C707.058 417.648 707.04 417.577 707.029 417.513C707.023 417.49 707.017 417.466 707.011 417.449C707 417.384 706.982 417.326 706.97 417.267C706.713 416.221 706.448 415.174 706.175 414.127C706.175 414.121 706.175 414.121 706.169 414.115C704.166 406.118 701.221 398.387 697.396 391.084C697.279 390.867 697.162 390.645 697.034 390.429C695.262 387.196 693.23 384.113 690.957 381.211C689.707 379.627 688.378 378.106 686.974 376.655C683.34 372.915 679.14 369.769 674.529 367.333C665.335 362.479 654.69 360.619 644.865 363.584C644.613 363.66 644.368 363.736 644.116 363.818Z" fill="#F0F0F0"/>
<path id="Vector_71" d="M644.174 364.143C656.939 366.679 668.58 373.171 677.445 382.7C679.389 384.717 681.004 387.028 682.229 389.548C683.343 392.042 683.769 394.788 683.463 397.502C683.228 400.038 682.694 402.605 683.08 405.154C683.297 406.456 683.786 407.697 684.517 408.796C685.247 409.896 686.201 410.828 687.317 411.533C690.052 413.361 693.281 414.097 696.463 414.708C699.996 415.386 703.677 416.033 706.626 418.241C706.983 418.508 707.377 417.938 707.021 417.671C701.89 413.831 695.014 414.637 689.402 411.926C686.783 410.661 684.529 408.599 683.88 405.668C683.313 403.106 683.861 400.458 684.121 397.892C684.459 395.249 684.144 392.564 683.204 390.071C682.112 387.496 680.589 385.127 678.701 383.063C674.525 378.35 669.634 374.323 664.207 371.129C658.033 367.449 651.276 364.853 644.227 363.452C643.791 363.366 643.74 364.057 644.174 364.143L644.174 364.143Z" fill="white"/>
<path id="Vector_72" d="M674.771 379.463C676.168 377.759 676.913 375.614 676.874 373.411C676.835 371.208 676.014 369.09 674.558 367.436C674.262 367.103 673.73 367.546 674.026 367.881C675.385 369.418 676.149 371.391 676.181 373.442C676.214 375.494 675.511 377.49 674.201 379.069C673.917 379.412 674.488 379.805 674.771 379.463Z" fill="white"/>
<path id="Vector_73" d="M683.751 396.232C679.273 396.716 674.776 395.495 671.158 392.812C670.8 392.546 670.406 393.116 670.764 393.382C674.534 396.167 679.216 397.428 683.875 396.913C684.319 396.864 684.193 396.182 683.751 396.232V396.232Z" fill="white"/>
<path id="Vector_74" d="M657.915 368.361C657.512 369.133 656.924 369.792 656.203 370.281C655.482 370.769 654.651 371.071 653.784 371.159C653.34 371.202 653.466 371.884 653.908 371.841C654.865 371.739 655.782 371.405 656.58 370.867C657.378 370.329 658.032 369.604 658.485 368.755C658.534 368.679 658.553 368.586 658.537 368.497C658.52 368.407 658.471 368.327 658.397 368.273C658.322 368.221 658.229 368.201 658.138 368.218C658.048 368.234 657.968 368.285 657.915 368.361V368.361Z" fill="white"/>
<path id="Vector_75" d="M139.094 372.003C141.034 356.4 150.704 341.027 165.584 335.949C159.716 352.009 159.717 369.627 165.588 385.686C167.874 391.871 171.061 398.512 168.911 404.745C167.572 408.624 164.299 411.591 160.639 413.447C156.98 415.302 152.918 416.187 148.908 417.053L148.119 417.706C141.752 403.33 137.153 387.606 139.094 372.003Z" fill="#F0F0F0"/>
<path id="Vector_76" d="M165.732 336.244C157.066 345.954 151.68 358.147 150.339 371.092C150.001 373.874 150.103 376.691 150.642 379.441C151.254 382.102 152.567 384.552 154.446 386.534C156.16 388.418 158.132 390.146 159.359 392.413C159.969 393.583 160.326 394.869 160.405 396.187C160.483 397.504 160.283 398.823 159.816 400.058C158.733 403.164 156.599 405.696 154.425 408.099C152.012 410.768 149.463 413.501 148.437 417.039C148.313 417.467 147.655 417.249 147.779 416.821C149.564 410.666 155.539 407.17 158.388 401.627C159.718 399.04 160.276 396.037 159.03 393.306C157.94 390.918 155.908 389.134 154.156 387.242C152.295 385.335 150.929 383.002 150.178 380.445C149.501 377.732 149.29 374.923 149.555 372.139C150.052 365.861 151.532 359.701 153.942 353.883C156.656 347.229 160.488 341.087 165.273 335.725C165.57 335.393 166.026 335.915 165.732 336.244H165.732Z" fill="white"/>
<path id="Vector_77" d="M150.526 366.898C148.384 366.379 146.497 365.114 145.202 363.332C143.907 361.549 143.287 359.364 143.454 357.167C143.49 356.723 144.182 356.757 144.147 357.202C143.987 359.247 144.565 361.283 145.774 362.94C146.984 364.598 148.746 365.768 150.743 366.24C151.177 366.344 150.957 367.001 150.526 366.898V366.898Z" fill="white"/>
<path id="Vector_78" d="M153.451 385.693C157.318 383.384 160.173 379.702 161.447 375.382C161.572 374.953 162.23 375.171 162.105 375.599C160.771 380.093 157.792 383.918 153.763 386.313C153.378 386.54 153.069 385.92 153.451 385.694L153.451 385.693Z" fill="white"/>
<path id="Vector_79" d="M157.299 347.885C158.086 348.259 158.953 348.431 159.822 348.387C160.692 348.343 161.537 348.084 162.282 347.632C162.663 347.399 162.973 348.02 162.594 348.251C161.769 348.746 160.835 349.032 159.874 349.082C158.913 349.133 157.954 348.948 157.082 348.543C156.996 348.512 156.926 348.449 156.885 348.368C156.844 348.287 156.836 348.193 156.861 348.105C156.891 348.018 156.953 347.947 157.035 347.905C157.117 347.864 157.212 347.857 157.299 347.885V347.885Z" fill="white"/>
<path id="Vector_80" d="M210.941 363.818C210.707 363.97 210.474 364.122 210.239 364.28C207.106 366.341 204.144 368.653 201.385 371.193C201.169 371.386 200.952 371.585 200.742 371.784C194.159 377.975 188.783 385.334 184.886 393.487C183.339 396.733 182.041 400.092 181.003 403.535C179.57 408.29 178.394 413.56 175.558 417.449C175.266 417.858 174.95 418.249 174.61 418.619H148.976C148.918 418.589 148.859 418.566 148.801 418.537L147.777 418.583C147.818 418.402 147.865 418.215 147.906 418.034C147.93 417.928 147.959 417.823 147.982 417.718C148 417.648 148.017 417.577 148.029 417.513C148.035 417.49 148.041 417.466 148.046 417.449C148.058 417.384 148.076 417.326 148.088 417.267C148.345 416.221 148.61 415.174 148.883 414.127C148.883 414.121 148.883 414.121 148.889 414.115C150.892 406.118 153.837 398.387 157.661 391.084C157.778 390.867 157.895 390.645 158.024 390.429C159.795 387.196 161.827 384.113 164.101 381.211C165.351 379.626 166.68 378.106 168.084 376.655C171.718 372.915 175.917 369.769 180.529 367.333C189.723 362.479 200.367 360.619 210.193 363.584C210.444 363.66 210.69 363.736 210.941 363.818Z" fill="#F0F0F0"/>
<path id="Vector_81" d="M210.884 364.143C198.119 366.679 186.477 373.171 177.613 382.7C175.668 384.717 174.054 387.028 172.828 389.548C171.714 392.042 171.288 394.788 171.595 397.502C171.83 400.038 172.363 402.605 171.978 405.154C171.761 406.456 171.271 407.697 170.541 408.796C169.811 409.896 168.856 410.828 167.74 411.533C165.006 413.361 161.777 414.097 158.595 414.708C155.061 415.386 151.38 416.033 148.431 418.241C148.074 418.508 147.68 417.938 148.037 417.671C153.168 413.831 160.043 414.637 165.656 411.926C168.275 410.661 170.529 408.599 171.177 405.668C171.745 403.106 171.197 400.458 170.937 397.892C170.599 395.249 170.914 392.564 171.853 390.071C172.946 387.496 174.469 385.127 176.357 383.063C180.533 378.35 185.424 374.323 190.851 371.129C197.024 367.449 203.781 364.853 210.83 363.452C211.267 363.366 211.317 364.057 210.884 364.143H210.884Z" fill="white"/>
<path id="Vector_82" d="M180.287 379.463C178.89 377.759 178.145 375.614 178.184 373.411C178.223 371.208 179.043 369.09 180.5 367.436C180.795 367.103 181.328 367.546 181.032 367.881C179.673 369.418 178.908 371.391 178.876 373.442C178.844 375.494 179.546 377.49 180.856 379.069C181.141 379.412 180.569 379.805 180.287 379.463V379.463Z" fill="white"/>
<path id="Vector_83" d="M171.306 396.232C175.785 396.716 180.281 395.495 183.899 392.812C184.257 392.546 184.651 393.116 184.294 393.382C180.524 396.167 175.842 397.428 171.183 396.913C170.739 396.864 170.865 396.182 171.306 396.232Z" fill="white"/>
<path id="Vector_84" d="M197.142 368.361C197.545 369.133 198.134 369.792 198.855 370.281C199.576 370.769 200.407 371.071 201.273 371.159C201.718 371.202 201.591 371.884 201.149 371.841C200.193 371.739 199.275 371.405 198.477 370.867C197.679 370.329 197.025 369.604 196.572 368.755C196.523 368.679 196.505 368.586 196.521 368.497C196.537 368.407 196.587 368.327 196.66 368.273C196.736 368.221 196.829 368.201 196.919 368.218C197.009 368.234 197.09 368.285 197.142 368.361H197.142Z" fill="white"/>
</g>
</svg>
