<svg width="790" height="610" viewBox="0 0 790 610" fill="none" xmlns="http://www.w3.org/2000/svg">
<g id="Group 3">
<path id="Vector" d="M278.882 428.707C314.272 428.707 342.962 400.017 342.962 364.626C342.962 329.236 314.272 300.546 278.882 300.546C243.491 300.546 214.801 329.236 214.801 364.626C214.801 400.017 243.491 428.707 278.882 428.707Z" fill="#E5E5E5"/>
<path id="Vector_2" d="M208.081 184.161C243.471 184.161 272.161 155.471 272.161 120.081C272.161 84.6898 243.471 56 208.081 56C172.69 56 144 84.6898 144 120.081C144 155.471 172.69 184.161 208.081 184.161Z" fill="#E5E5E5"/>
<path id="Vector_3" opacity="0.2" d="M231.567 321.826C225.589 335.808 224.778 351.459 229.279 365.984C233.779 380.509 243.298 392.96 256.134 401.113C268.969 409.266 284.286 412.589 299.346 410.488C314.406 408.388 328.229 401 338.344 389.647C334.692 398.189 329.227 405.835 322.328 412.056C315.428 418.277 307.258 422.923 298.384 425.673C289.51 428.422 280.145 429.21 270.937 427.981C261.728 426.752 252.897 423.535 245.055 418.555C237.213 413.574 230.548 406.947 225.521 399.135C220.494 391.322 217.226 382.51 215.943 373.309C214.66 364.108 215.393 354.738 218.091 345.849C220.788 336.959 225.386 328.762 231.567 321.826V321.826Z" fill="black"/>
<path id="Vector_4" d="M390.528 338.259C433.155 338.259 467.712 303.703 467.712 261.075C467.712 218.447 433.155 183.891 390.528 183.891C347.9 183.891 313.344 218.447 313.344 261.075C313.344 303.703 347.9 338.259 390.528 338.259Z" fill="#E5E5E5"/>
<path id="Vector_5" opacity="0.2" d="M447.518 209.522C454.718 226.363 455.694 245.215 450.274 262.71C444.853 280.205 433.388 295.202 417.927 305.022C402.467 314.842 384.019 318.845 365.879 316.315C347.739 313.785 331.09 304.887 318.906 291.211C323.304 301.501 329.887 310.711 338.198 318.203C346.508 325.696 356.349 331.292 367.037 334.604C377.725 337.916 389.006 338.865 400.097 337.385C411.189 335.904 421.826 332.03 431.271 326.031C440.717 320.031 448.745 312.05 454.799 302.64C460.854 293.23 464.791 282.616 466.336 271.533C467.881 260.451 466.999 249.165 463.75 238.457C460.5 227.75 454.962 217.877 447.518 209.522V209.522Z" fill="black"/>
<path id="Vector_6" d="M674.637 151.705H567.182V161.28H674.637V151.705Z" fill="#3F3D56"/>
<path id="Vector_7" d="M674.637 186.979H567.182V196.554H674.637V186.979Z" fill="#3F3D56"/>
<path id="Vector_8" d="M674.637 218.578H567.182V228.154H674.637V218.578Z" fill="#3F3D56"/>
<path id="Vector_9" d="M526.764 156.493C526.764 154.022 527.496 151.607 528.869 149.552C530.242 147.498 532.193 145.897 534.476 144.951C536.758 144.005 539.27 143.758 541.694 144.24C544.117 144.722 546.343 145.912 548.09 147.659C549.837 149.406 551.027 151.632 551.509 154.056C551.991 156.479 551.744 158.991 550.798 161.274C549.853 163.556 548.252 165.507 546.197 166.88C544.143 168.253 541.727 168.986 539.256 168.986V168.986C535.944 168.982 532.769 167.665 530.427 165.322C528.085 162.98 526.767 159.805 526.764 156.493V156.493Z" fill="#62F188"/>
<path id="Vector_10" d="M526.764 191.767C526.764 189.296 527.496 186.88 528.869 184.826C530.242 182.772 532.193 181.17 534.476 180.225C536.758 179.279 539.27 179.032 541.694 179.514C544.117 179.996 546.343 181.186 548.09 182.933C549.837 184.68 551.027 186.906 551.509 189.329C551.991 191.753 551.744 194.265 550.798 196.547C549.853 198.83 548.252 200.781 546.197 202.154C544.143 203.527 541.727 204.259 539.257 204.259C535.944 204.256 532.769 202.938 530.427 200.596C528.085 198.254 526.767 195.079 526.764 191.767V191.767Z" fill="#62F188"/>
<path id="Vector_11" d="M526.764 223.366C526.764 220.895 527.496 218.48 528.869 216.425C530.242 214.371 532.193 212.77 534.476 211.824C536.758 210.879 539.27 210.631 541.694 211.113C544.117 211.595 546.343 212.785 548.09 214.532C549.837 216.279 551.027 218.505 551.509 220.929C551.991 223.352 551.744 225.864 550.798 228.147C549.853 230.43 548.252 232.381 546.197 233.753C544.143 235.126 541.727 235.859 539.257 235.859V235.859C535.944 235.855 532.769 234.538 530.427 232.196C528.085 229.854 526.767 226.678 526.764 223.366V223.366Z" fill="#62F188"/>
<path id="Vector_12" d="M421.459 240.592L419.88 239.366L460.329 187.284H513.23V189.284H461.308L421.459 240.592Z" fill="#3F3D56"/>
<path id="Vector_13" d="M107.456 265.705H0V275.28H107.456V265.705Z" fill="#3F3D56"/>
<path id="Vector_14" d="M107.456 300.979H0V310.554H107.456V300.979Z" fill="#3F3D56"/>
<path id="Vector_15" d="M107.456 332.578H0V342.154H107.456V332.578Z" fill="#3F3D56"/>
<path id="Vector_16" d="M135.381 282.986C132.91 282.986 130.495 282.253 128.44 280.88C126.386 279.508 124.784 277.556 123.839 275.274C122.893 272.991 122.646 270.479 123.128 268.056C123.61 265.632 124.8 263.406 126.547 261.659C128.294 259.912 130.52 258.722 132.944 258.24C135.367 257.758 137.879 258.005 140.162 258.951C142.444 259.897 144.395 261.498 145.768 263.552C147.141 265.607 147.874 268.022 147.874 270.493C147.874 272.133 147.55 273.758 146.923 275.274C146.295 276.789 145.375 278.167 144.215 279.327C143.054 280.487 141.677 281.407 140.162 282.035C138.646 282.663 137.021 282.986 135.381 282.986Z" fill="#62F188"/>
<path id="Vector_17" d="M135.381 318.259C132.91 318.259 130.495 317.527 128.44 316.154C126.386 314.781 124.784 312.83 123.839 310.547C122.893 308.265 122.646 305.753 123.128 303.329C123.61 300.906 124.8 298.68 126.547 296.933C128.294 295.186 130.52 293.996 132.944 293.514C135.367 293.032 137.879 293.279 140.162 294.225C142.444 295.17 144.395 296.772 145.768 298.826C147.141 300.88 147.874 303.296 147.874 305.767C147.874 307.407 147.55 309.032 146.923 310.547C146.295 312.063 145.375 313.44 144.214 314.6C143.054 315.76 141.677 316.681 140.162 317.308C138.646 317.936 137.021 318.259 135.381 318.259H135.381Z" fill="#62F188"/>
<path id="Vector_18" d="M135.381 349.859C132.91 349.859 130.495 349.126 128.44 347.753C126.386 346.381 124.784 344.43 123.839 342.147C122.893 339.864 122.646 337.352 123.128 334.929C123.61 332.505 124.8 330.279 126.547 328.532C128.294 326.785 130.52 325.595 132.944 325.113C135.367 324.631 137.879 324.879 140.162 325.824C142.444 326.77 144.395 328.371 145.768 330.425C147.141 332.48 147.874 334.895 147.874 337.366C147.874 339.007 147.55 340.631 146.923 342.147C146.295 343.663 145.375 345.04 144.214 346.2C143.054 347.36 141.677 348.28 140.162 348.908C138.646 349.536 137.021 349.859 135.381 349.859H135.381Z" fill="#62F188"/>
<path id="Vector_19" d="M253.179 354.592L213.329 303.284H161.408V301.284H214.308L214.608 301.671L254.758 353.366L253.179 354.592Z" fill="#3F3D56"/>
<path id="Vector_20" d="M480.637 7.7052H373.182V17.2805H480.637V7.7052Z" fill="#3F3D56"/>
<path id="Vector_21" d="M480.637 42.979H373.182V52.5542H480.637V42.979Z" fill="#3F3D56"/>
<path id="Vector_22" d="M480.637 74.5785H373.182V84.1537H480.637V74.5785Z" fill="#3F3D56"/>
<path id="Vector_23" d="M332.764 12.4928C332.764 10.022 333.496 7.60662 334.869 5.55218C336.242 3.49775 338.193 1.89652 340.476 0.950972C342.758 0.00542122 345.27 -0.24199 347.694 0.24005C350.117 0.722089 352.343 1.91192 354.09 3.65907C355.837 5.40622 357.027 7.63223 357.509 10.0556C357.991 12.479 357.744 14.9909 356.798 17.2736C355.853 19.5564 354.252 21.5075 352.197 22.8802C350.143 24.2529 347.727 24.9856 345.256 24.9856V24.9856C341.944 24.9819 338.769 23.6645 336.427 21.3225C334.085 18.9804 332.767 15.805 332.764 12.4928V12.4928Z" fill="#62F188"/>
<path id="Vector_24" d="M332.764 47.7666C332.764 45.2958 333.496 42.8804 334.869 40.826C336.242 38.7716 338.193 37.1703 340.476 36.2248C342.758 35.2792 345.27 35.0318 347.694 35.5139C350.117 35.9959 352.343 37.1857 354.09 38.9329C355.837 40.68 357.027 42.906 357.509 45.3294C357.991 47.7527 357.744 50.2646 356.798 52.5474C355.853 54.8302 354.252 56.7813 352.197 58.154C350.143 59.5267 347.727 60.2594 345.257 60.2594V60.2594C341.944 60.2557 338.769 58.9384 336.427 56.5963C334.085 54.2543 332.767 51.0788 332.764 47.7666Z" fill="#62F188"/>
<path id="Vector_25" d="M332.764 79.3661C332.764 76.8952 333.496 74.4799 334.869 72.4255C336.242 70.371 338.193 68.7698 340.476 67.8242C342.758 66.8787 345.27 66.6313 347.694 67.1133C350.117 67.5953 352.343 68.7852 354.09 70.5323C355.837 72.2795 357.027 74.5055 357.509 76.9288C357.991 79.3522 357.744 81.8641 356.798 84.1469C355.853 86.4296 354.252 88.3807 352.197 89.7535C350.143 91.1262 347.727 91.8589 345.257 91.8589C341.944 91.8552 338.769 90.5378 336.427 88.1958C334.085 85.8537 332.767 82.6783 332.764 79.3661V79.3661Z" fill="#62F188"/>
<path id="Vector_26" d="M227.459 96.592L225.88 95.366L266.329 43.284H319.23V45.284H267.308L227.459 96.592Z" fill="#3F3D56"/>
<path id="Vector_27" d="M757.434 603.319H750.685L747.474 577.284H757.436L757.434 603.319Z" fill="#FFB7B7"/>
<path id="Vector_28" d="M759.156 609.862L737.392 609.861V609.586C737.392 607.339 738.284 605.185 739.873 603.596C741.462 602.008 743.616 601.115 745.863 601.115H745.863L759.156 601.116L759.156 609.862Z" fill="#2F2E41"/>
<path id="Vector_29" d="M728.434 603.319H721.685L718.474 577.284H728.436L728.434 603.319Z" fill="#FFB7B7"/>
<path id="Vector_30" d="M730.156 609.862L708.392 609.861V609.586C708.392 607.339 709.284 605.185 710.873 603.596C712.462 602.008 714.616 601.115 716.863 601.115H716.863L730.156 601.116L730.156 609.862Z" fill="#2F2E41"/>
<path id="Vector_31" d="M713.069 432.511L703.923 447.055L719.275 593.813L735.319 594.784L738.693 468.032L744.319 535.784L742.096 594.784L758.614 595.585L768.429 509.985L775.819 442.284L761.319 428.784L713.069 432.511Z" fill="#2F2E41"/>
<path id="Vector_32" d="M755.819 321.284L730.819 322.284L707.653 436.567C707.653 436.567 745.307 455.252 760.563 438.268L769.732 431.55L755.819 321.284Z" fill="#62F188"/>
<path id="Vector_33" d="M755.819 321.284L777.819 334.105L769.691 387.784L776.818 442.515L753.67 438.743C753.67 438.743 748.931 387.784 752.007 371.784C755.082 355.784 755.819 321.284 755.819 321.284Z" fill="#3F3D56"/>
<path id="Vector_34" d="M730.819 322.284L704.494 335.795L706.499 395.243L692.913 440.283C692.913 440.283 720.004 448.952 724.661 435.368C729.319 421.784 730.819 322.284 730.819 322.284Z" fill="#3F3D56"/>
<path id="Vector_35" d="M766.371 456.06C767.248 455.632 768.022 455.016 768.636 454.257C769.25 453.498 769.691 452.613 769.926 451.665C770.162 450.717 770.186 449.729 769.999 448.77C769.811 447.812 769.415 446.906 768.84 446.117L776.785 433.08L770.039 426.32L759.078 444.888C757.817 445.943 756.986 447.424 756.744 449.051C756.501 450.677 756.864 452.336 757.762 453.713C758.661 455.09 760.034 456.089 761.621 456.522C763.207 456.954 764.897 456.79 766.371 456.06V456.06Z" fill="#FFB7B7"/>
<path id="Vector_36" d="M766.401 341.417L776.889 333.105C776.889 333.105 786.808 341.223 786.563 349.003C786.319 356.784 789.288 398.231 789.288 398.231L772.921 447.495L760.732 437.743L775.01 399.284L763.759 366.466L766.401 341.417Z" fill="#3F3D56"/>
<path id="Vector_37" d="M698.594 458.381C697.785 457.834 697.106 457.115 696.605 456.277C696.103 455.439 695.792 454.501 695.692 453.529C695.593 452.558 695.707 451.576 696.028 450.654C696.349 449.731 696.868 448.89 697.549 448.19L691.519 434.164L699.149 428.421L707.386 448.348C708.487 449.57 709.101 451.153 709.112 452.797C709.123 454.442 708.53 456.033 707.447 457.27C706.363 458.506 704.863 459.303 703.231 459.508C701.6 459.712 699.95 459.311 698.594 458.381V458.381Z" fill="#FFB7B7"/>
<path id="Vector_38" d="M714.706 344.877L705.492 335.171C705.492 335.171 694.53 341.811 693.677 349.548C692.823 357.285 684.047 397.901 684.047 397.901L693.315 448.979L706.755 441.041L698.035 400.954L713.795 370.048L714.706 344.877Z" fill="#3F3D56"/>
<path id="Vector_39" d="M744.116 313.814C753.547 313.814 761.192 306.169 761.192 296.738C761.192 287.308 753.547 279.663 744.116 279.663C734.686 279.663 727.041 287.308 727.041 296.738C727.041 306.169 734.686 313.814 744.116 313.814Z" fill="#FFB7B7"/>
<path id="Vector_40" d="M739.987 281.576C738.263 281.272 736.556 282.056 734.958 282.772C733.361 283.488 731.575 284.166 729.901 283.653C729.129 283.361 728.438 282.889 727.885 282.276C727.332 281.663 726.934 280.927 726.723 280.13C726.317 278.532 726.172 276.878 726.292 275.234L728.111 276.285L726.869 274.197L744.589 272.238C749.95 271.646 755.962 271.233 760.132 274.654C762.257 276.584 763.805 279.066 764.602 281.824C768.139 292.653 772.156 308.432 754 311.651C751.469 310.951 755.596 301.635 755.554 299.01C755.512 296.385 754.067 293.434 751.473 293.031L749.573 295.673C750.789 293.982 746.473 288.491 745.399 287.419C744.434 286.6 743.563 285.677 742.801 284.665C741.944 283.351 741.934 281.92 739.987 281.576Z" fill="#2F2E41"/>
</g>
</svg>
